<?xml version="1.0" encoding="utf-8" ?>
<svg xmlns="http://www.w3.org/2000/svg" xmlns:xlink="http://www.w3.org/1999/xlink" width="18" height="20" viewBox="0 0 18 20">
	<defs>
		<clipPath id="clipPath4094332351">
			<path d="M0 0L18 0L18 20L0 20L0 0Z" fill-rule="nonzero" transform="matrix(1 0 0 1 0 0)"/>
		</clipPath>
	</defs>
	<g clip-path="url(#clipPath4094332351)">
		<defs>
			<clipPath id="clipPath3678831314">
				<path d="M0 0L16 0L16 17.0002L0 17.0002L0 0Z" fill-rule="nonzero" transform="matrix(1 0 0 1 1 1.49989)"/>
			</clipPath>
		</defs>
		<g clip-path="url(#clipPath3678831314)">
			<path d="M1 -0.564453L7 -0.564453Q7.64123 -0.564453 8.09792 -0.126218Q8.56445 0.321457 8.56445 0.959583L8.56445 4.23346L12 4.23346Q12.6412 4.23346 13.0979 4.67169Q13.5645 5.11937 13.5645 5.75749L13.5645 13.4342Q13.5645 13.4897 13.5536 13.5443Q13.5428 13.5988 13.5215 13.6502Q13.5002 13.7015 13.4693 13.7477Q13.4384 13.794 13.3991 13.8333Q13.3598 13.8726 13.3136 13.9035Q13.2674 13.9344 13.216 13.9556Q13.1646 13.9769 13.1101 13.9878Q13.0556 13.9986 13 13.9986L8 13.9986Q7.97122 13.9986 7.94259 13.9957Q7.9094 13.9986 7.87502 13.9986L0 13.9986Q-0.0555938 13.9986 -0.110119 13.9878Q-0.164645 13.9769 -0.216007 13.9556Q-0.267369 13.9344 -0.313593 13.9035Q-0.359818 13.8726 -0.399129 13.8333Q-0.438439 13.794 -0.469326 13.7477Q-0.500212 13.7015 -0.521487 13.6502Q-0.542761 13.5988 -0.553607 13.5443Q-0.564453 13.4897 -0.564453 13.4342L-0.564453 0.959583Q-0.564453 0.321458 -0.0979202 -0.126219Q0.358772 -0.564453 1 -0.564453ZM4.56445 12.8697L4.56445 11.515C4.56445 11.2033 4.31174 10.9505 4 10.9505C3.68826 10.9505 3.43555 11.2033 3.43555 11.515L3.43555 12.8697L0.564453 12.8697L0.564453 0.959583Q0.564453 0.802763 0.683707 0.688329Q0.8128 0.564453 1 0.564453L7 0.564453Q7.1872 0.564453 7.31629 0.688329Q7.43555 0.802763 7.43555 0.959583L7.43555 12.8697L4.56445 12.8697ZM8.56445 12.8697L12.4355 12.8697L12.4355 5.75749Q12.4355 5.60068 12.3163 5.48624Q12.1872 5.36237 12 5.36237L8.56445 5.36237L8.56445 12.8697Z" fill-rule="evenodd" transform="matrix(1 0 0 1 2.5 3.28283)" fill="rgb(102, 102, 102)"/>
			<path d="M0.564921 10.5514C0.419545 10.5697 0.290728 10.5336 0.178469 10.4431C0.0662101 10.3526 0.00690381 10.237 0.00055027 10.0965C-0.00580327 9.95593 0.0428557 9.83591 0.146527 9.73643C0.250199 9.63695 0.375272 9.59026 0.521748 9.59635C0.668224 9.60245 0.788615 9.65936 0.88292 9.76708C0.977225 9.8748 1.01487 9.99841 0.995858 10.1379C0.981165 10.2457 0.933757 10.3381 0.853634 10.415C0.773512 10.4918 0.677274 10.5373 0.564921 10.5514ZM0.564921 8.15248C0.419545 8.17072 0.290728 8.1346 0.178469 8.0441C0.0662101 7.95361 0.00690381 7.83808 0.00055027 7.69753C-0.00580327 7.55697 0.0428557 7.43695 0.146527 7.33747C0.250199 7.23799 0.375272 7.1913 0.521748 7.1974C0.668224 7.20349 0.788615 7.2604 0.88292 7.36812C0.977225 7.47585 1.01487 7.59946 0.995858 7.73896C0.981165 7.84677 0.933757 7.93912 0.853634 8.016C0.773512 8.09289 0.677274 8.13838 0.564921 8.15248ZM0.564921 5.75352C0.419545 5.77177 0.290728 5.73564 0.178469 5.64515C0.0662101 5.55465 0.00690381 5.43913 0.00055027 5.29857C-0.00580327 5.15802 0.0428557 5.038 0.146527 4.93852C0.250199 4.83904 0.375272 4.79234 0.521748 4.79844C0.668224 4.80454 0.788615 4.86145 0.88292 4.96917C0.977225 5.07689 1.01487 5.2005 0.995858 5.34C0.981165 5.44781 0.933757 5.54016 0.853634 5.61705C0.773512 5.69393 0.677274 5.73942 0.564921 5.75352ZM0.564921 3.35456C0.419545 3.37281 0.290728 3.33668 0.178469 3.24619C0.0662101 3.1557 0.00690381 3.04017 0.00055027 2.89962C-0.00580327 2.75906 0.0428557 2.63904 0.146527 2.53956C0.250199 2.44008 0.375272 2.39339 0.521748 2.39948C0.668224 2.40558 0.788615 2.46249 0.88292 2.57021C0.977225 2.67793 1.01487 2.80155 0.995858 2.94105C0.981165 3.04886 0.933757 3.14121 0.853634 3.21809C0.773512 3.29497 0.677274 3.34047 0.564921 3.35456ZM0.564921 0.955609C0.419545 0.973853 0.290728 0.937728 0.178469 0.847235C0.0662101 0.756741 0.00690381 0.641216 0.00055027 0.50066C-0.00580311 0.360105 0.042856 0.240086 0.146528 0.140605C0.250199 0.0411235 0.375273 -0.00556871 0.521749 0.00052803C0.668225 0.00662493 0.788615 0.0635343 0.88292 0.171256C0.977226 0.278978 1.01487 0.402589 0.995858 0.542088C0.981164 0.6499 0.933756 0.742248 0.853634 0.819132C0.773512 0.896016 0.677274 0.941508 0.564921 0.955609ZM3.06492 8.15248C2.91955 8.17072 2.79073 8.1346 2.67847 8.0441C2.56621 7.95361 2.5069 7.83808 2.50055 7.69753C2.4942 7.55697 2.54286 7.43695 2.64653 7.33747C2.7502 7.23799 2.87527 7.1913 3.02175 7.1974C3.16822 7.20349 3.28861 7.2604 3.38292 7.36812C3.47723 7.47585 3.51487 7.59946 3.49586 7.73896C3.48116 7.84677 3.43376 7.93912 3.35363 8.016C3.27351 8.09289 3.17727 8.13838 3.06492 8.15248ZM3.06492 5.75352C2.91955 5.77177 2.79073 5.73564 2.67847 5.64515C2.56621 5.55465 2.5069 5.43913 2.50055 5.29857C2.4942 5.15802 2.54286 5.038 2.64653 4.93852C2.7502 4.83904 2.87527 4.79234 3.02175 4.79844C3.16822 4.80454 3.28861 4.86145 3.38292 4.96917C3.47723 5.07689 3.51487 5.2005 3.49586 5.34C3.48116 5.44781 3.43376 5.54016 3.35363 5.61705C3.27351 5.69393 3.17727 5.73942 3.06492 5.75352ZM3.06492 3.35456C2.91954 3.37281 2.79073 3.33668 2.67847 3.24619C2.56621 3.1557 2.5069 3.04017 2.50055 2.89962C2.4942 2.75906 2.54286 2.63904 2.64653 2.53956C2.7502 2.44008 2.87527 2.39339 3.02175 2.39948C3.16822 2.40558 3.28861 2.46249 3.38292 2.57021C3.47723 2.67793 3.51487 2.80155 3.49586 2.94105C3.48116 3.04886 3.43376 3.14121 3.35363 3.21809C3.27351 3.29497 3.17727 3.34046 3.06492 3.35456ZM3.06492 0.955609C2.91955 0.973853 2.79073 0.937728 2.67847 0.847235C2.56621 0.756741 2.5069 0.641216 2.50055 0.50066C2.4942 0.360105 2.54286 0.240086 2.64653 0.140605C2.7502 0.0411235 2.87527 -0.00556871 3.02175 0.00052803C3.16822 0.00662493 3.28862 0.0635343 3.38292 0.171256C3.47723 0.278978 3.51487 0.402589 3.49586 0.542088C3.48116 0.6499 3.43376 0.742248 3.35363 0.819132C3.27351 0.896016 3.17727 0.941508 3.06492 0.955609ZM5.56492 10.5514C5.41955 10.5697 5.29073 10.5336 5.17847 10.4431C5.06621 10.3526 5.00691 10.237 5.00055 10.0965C4.9942 9.95593 5.04286 9.83591 5.14653 9.73643C5.2502 9.63695 5.37527 9.59026 5.52175 9.59635C5.66823 9.60245 5.78862 9.65936 5.88292 9.76708C5.97723 9.8748 6.01487 9.99841 5.99586 10.1379C5.98117 10.2457 5.93376 10.3381 5.85363 10.415C5.77351 10.4918 5.67728 10.5373 5.56492 10.5514ZM5.56492 8.15248C5.41955 8.17072 5.29073 8.1346 5.17847 8.0441C5.06621 7.95361 5.00691 7.83808 5.00055 7.69753C4.9942 7.55697 5.04286 7.43695 5.14653 7.33747C5.2502 7.23799 5.37527 7.1913 5.52175 7.1974C5.66823 7.20349 5.78862 7.2604 5.88292 7.36812C5.97723 7.47585 6.01487 7.59946 5.99586 7.73896C5.98117 7.84677 5.93376 7.93912 5.85363 8.016C5.77351 8.09289 5.67728 8.13838 5.56492 8.15248ZM5.56492 5.75352C5.41955 5.77176 5.29073 5.73564 5.17847 5.64515C5.06621 5.55465 5.00691 5.43913 5.00055 5.29857C4.9942 5.15802 5.04286 5.038 5.14653 4.93852C5.2502 4.83904 5.37527 4.79234 5.52175 4.79844C5.66823 4.80454 5.78862 4.86145 5.88292 4.96917C5.97723 5.07689 6.01487 5.2005 5.99586 5.34C5.98117 5.44781 5.93376 5.54016 5.85363 5.61704C5.77351 5.69393 5.67728 5.73942 5.56492 5.75352Z" fill-rule="nonzero" transform="matrix(1 0 0 1 3.5 4.72238)" fill="rgb(102, 102, 102)"/>
			<ellipse cx="0.48846859" cy="0.49091861" rx="0.48846859" ry="0.49091861" transform="matrix(0.721538 -0.692375 0.721538 0.692375 8.2934 7.5993)" fill="rgb(102, 102, 102)"/>
			<path d="M0.564921 0.955608C0.419545 0.973853 0.290728 0.937728 0.178469 0.847235C0.0662098 0.756741 0.00690365 0.641216 0.00055027 0.500661C-0.00580343 0.360105 0.0428554 0.240086 0.146527 0.140605C0.250199 0.0411236 0.375272 -0.00556871 0.521748 0.00052803C0.668224 0.00662477 0.788615 0.063534 0.88292 0.171256C0.977225 0.278978 1.01487 0.402588 0.995859 0.542088C0.981164 0.649901 0.933756 0.742249 0.853634 0.819132C0.773512 0.896016 0.677275 0.941508 0.564921 0.955608ZM4.99992 9.59575C4.86185 9.59575 4.744 9.64259 4.64637 9.73628C4.54874 9.82996 4.49992 9.94305 4.49992 10.0755C4.49992 10.208 4.54874 10.3211 4.64637 10.4148C4.744 10.5085 4.86185 10.5553 4.99992 10.5553C5.13799 10.5553 5.25584 10.5085 5.35347 10.4148C5.45111 10.3211 5.49992 10.208 5.49992 10.0755C5.49992 9.94305 5.45111 9.82996 5.35347 9.73628C5.25584 9.64259 5.13799 9.59575 4.99992 9.59575ZM4.99992 7.19679C4.86185 7.19679 4.744 7.24364 4.64637 7.33732C4.54874 7.43101 4.49992 7.54409 4.49992 7.67658C4.49992 7.80907 4.54874 7.92216 4.64637 8.01585C4.744 8.10953 4.86185 8.15637 4.99992 8.15638C5.13799 8.15637 5.25584 8.10953 5.35347 8.01585C5.45111 7.92216 5.49992 7.80907 5.49992 7.67658C5.49992 7.54409 5.45111 7.43101 5.35347 7.33732C5.25584 7.24364 5.13799 7.19679 4.99992 7.19679ZM4.99992 4.79784C4.86185 4.79784 4.744 4.84468 4.64637 4.93836C4.54874 5.03205 4.49992 5.14514 4.49992 5.27763C4.49992 5.41012 4.54874 5.52321 4.64637 5.61689C4.744 5.71058 4.86185 5.75742 4.99992 5.75742C5.13799 5.75742 5.25584 5.71058 5.35347 5.61689C5.45111 5.52321 5.49992 5.41012 5.49992 5.27763C5.49992 5.14514 5.45111 5.03205 5.35347 4.93836C5.25584 4.84468 5.13799 4.79784 4.99992 4.79784ZM2.99992 9.59575C2.86185 9.59575 2.744 9.64259 2.64637 9.73628C2.54874 9.82996 2.49992 9.94305 2.49992 10.0755C2.49992 10.208 2.54874 10.3211 2.64637 10.4148C2.744 10.5085 2.86185 10.5553 2.99992 10.5553C3.13799 10.5553 3.25584 10.5085 3.35347 10.4148C3.4511 10.3211 3.49992 10.208 3.49992 10.0755C3.49992 9.94305 3.4511 9.82996 3.35347 9.73628C3.25584 9.64259 3.13799 9.59575 2.99992 9.59575ZM2.99992 7.19679C2.86185 7.19679 2.744 7.24364 2.64637 7.33732C2.54874 7.43101 2.49992 7.54409 2.49992 7.67658C2.49992 7.80907 2.54874 7.92216 2.64637 8.01585C2.744 8.10953 2.86185 8.15637 2.99992 8.15638C3.13799 8.15637 3.25584 8.10953 3.35347 8.01585C3.4511 7.92216 3.49992 7.80907 3.49992 7.67658C3.49992 7.54409 3.4511 7.43101 3.35347 7.33732C3.25584 7.24364 3.13799 7.19679 2.99992 7.19679ZM2.99992 4.79784C2.86185 4.79784 2.744 4.84468 2.64637 4.93836C2.54874 5.03205 2.49992 5.14514 2.49992 5.27763C2.49992 5.41012 2.54874 5.52321 2.64637 5.61689C2.744 5.71058 2.86185 5.75742 2.99992 5.75742C3.13799 5.75742 3.25584 5.71058 3.35347 5.61689C3.4511 5.52321 3.49992 5.41012 3.49992 5.27763C3.49992 5.14514 3.4511 5.03205 3.35347 4.93836C3.25584 4.84468 3.13799 4.79784 2.99992 4.79784Z" fill-rule="nonzero" transform="matrix(1 0 0 1 8.5 4.72238)" fill="rgb(102, 102, 102)"/>
		</g>
	</g>
</svg>
