<?xml version="1.0" encoding="utf-8" ?>
<svg xmlns="http://www.w3.org/2000/svg" xmlns:xlink="http://www.w3.org/1999/xlink" width="20" height="20" viewBox="0 0 20 20">
	<defs>
		<clipPath id="clipPath2355339440">
			<path d="M0 0L20 0L20 20L0 20L0 0Z" fill-rule="nonzero" transform="matrix(1 0 0 1 0 0)"/>
		</clipPath>
	</defs>
	<g clip-path="url(#clipPath2355339440)">
		<defs>
			<clipPath id="clipPath8431144256">
				<path d="M0 0L20 0L20 20L0 20L0 0Z" fill-rule="nonzero" transform="matrix(1 0 0 1 0 0)"/>
			</clipPath>
		</defs>
		<g clip-path="url(#clipPath8431144256)">
			<path d="M14.7398 2.30827L8.90538 -0.351882Q8.30784 -0.625 7.49609 -0.625Q6.68435 -0.625 6.08628 -0.35164L0.256195 2.30834Q-0.116856 2.47791 -0.338407 2.72737Q-0.625 3.05008 -0.625 3.44512Q-0.625 3.84016 -0.338407 4.16286Q-0.116857 4.41233 0.256998 4.58226L6.03752 7.21865Q6.65595 7.50059 7.49961 7.50059Q8.34326 7.50059 8.96161 7.21869L14.7429 4.58193Q15.1161 4.41152 15.3369 4.16154Q15.6222 3.83855 15.6215 3.44378Q15.6207 3.04921 15.3344 2.72703Q15.113 2.47788 14.7398 2.30827ZM8.38681 0.785476L14.2212 3.44563L8.44308 6.08131Q8.07177 6.25059 7.49961 6.25059Q6.92744 6.25059 6.55623 6.08135L0.776039 3.44512L6.60591 0.785234Q6.95648 0.625 7.49609 0.625Q8.03571 0.625 8.38681 0.785476ZM10.7978 9.22742C10.6481 9.53845 10.7789 9.91194 11.0899 10.0616L14.2236 11.5695L8.44336 14.2058Q8.07194 14.3749 7.49961 14.3749Q6.92728 14.3749 6.55623 14.206L0.775631 11.5695L4.00197 10.1218C4.31689 9.98047 4.45763 9.61061 4.31632 9.29569C4.175 8.98076 3.80514 8.84003 3.49022 8.98134L0.259749 10.431Q-0.116906 10.6021 -0.338485 10.8517Q-0.625 11.1745 -0.625 11.5695Q-0.625 11.9646 -0.338485 12.2873Q-0.116905 12.5369 0.256998 12.7069L6.03752 15.3433Q6.65611 15.6249 7.49961 15.6249Q8.34311 15.6249 8.96133 15.3434L14.7429 12.7065Q15.1161 12.5369 15.3377 12.2873Q15.6242 11.9646 15.6242 11.5695Q15.6242 11.1745 15.3377 10.8517Q15.1161 10.6021 14.7422 10.4322L11.632 8.93526C11.3209 8.78558 10.9474 8.91638 10.7978 9.22742Z" fill-rule="evenodd" transform="matrix(1 0 0 1 2.50391 2.5)" fill="rgb(102, 102, 102)"/>
			<path d="M10.6797 -0.255699C10.5385 0.0592662 10.6793 0.429083 10.9943 0.570301L14.2255 2.01905L8.44308 4.65592Q8.07177 4.8252 7.49961 4.8252Q6.92745 4.8252 6.55619 4.65595L0.77563 2.01993L4.00591 0.570208C4.32082 0.428877 4.46154 0.0590096 4.32021 -0.255905C4.17888 -0.57082 3.80901 -0.71154 3.49409 -0.570208L0.25972 0.881354Q-0.116906 1.05254 -0.338485 1.30213Q-0.625 1.62487 -0.625 2.01992Q-0.625 2.41498 -0.338485 2.73771Q-0.116906 2.9873 0.256998 3.15726L6.03756 5.79327Q6.65595 6.0752 7.49961 6.0752Q8.34326 6.0752 8.96161 5.7933L14.7429 3.15695Q15.1161 2.98828 15.3386 2.73919Q15.6267 2.41678 15.6276 2.0214Q15.6286 1.62567 15.3417 1.3023Q15.1202 1.05261 14.7461 0.882583L11.5057 -0.570301C11.1907 -0.711518 10.8209 -0.570665 10.6797 -0.255699Z" fill-rule="evenodd" transform="matrix(1 0 0 1 2.5 7.9875)" fill="rgb(102, 102, 102)"/>
		</g>
	</g>
</svg>
