<?xml version="1.0" encoding="utf-8" ?>
<svg xmlns="http://www.w3.org/2000/svg" xmlns:xlink="http://www.w3.org/1999/xlink" width="20" height="20" viewBox="0 0 20 20">
	<defs>
		<clipPath id="clipPath2037618285">
			<path d="M0 0L20 0L20 20L0 20L0 0Z" fill-rule="nonzero" transform="matrix(1 0 0 1 0 0)"/>
		</clipPath>
	</defs>
	<g clip-path="url(#clipPath2037618285)">
		<defs>
			<clipPath id="clipPath1397168691">
				<path d="M0 0L20 0L20 20L0 20L0 0Z" fill-rule="nonzero" transform="matrix(1 0 0 1 -0 -0)"/>
			</clipPath>
		</defs>
		<g clip-path="url(#clipPath1397168691)">
			<path d="M11.875 10.625L14.8438 10.625Q16.3948 10.625 17.2555 10.0504Q18.125 9.46984 18.125 8.29688Q18.125 7.18934 17.1697 6.58229Q16.3072 6.03427 14.9691 5.96798Q14.9136 5.96524 14.8596 5.95277Q14.8055 5.94029 14.7544 5.91849Q14.7034 5.89668 14.657 5.86622Q14.6106 5.83576 14.5703 5.7976Q14.53 5.75944 14.497 5.71477Q14.4641 5.67011 14.4395 5.62034Q14.415 5.57056 14.3996 5.51724Q14.3842 5.46392 14.3784 5.40872Q14.2624 4.29921 13.814 3.3814Q13.3903 2.51418 12.7048 1.88704Q12.0366 1.27587 11.1856 0.951793Q10.3275 0.625 9.375 0.625Q7.70046 0.625 6.46631 1.60544Q5.92634 2.0344 5.53331 2.60997Q5.16277 3.15262 4.97016 3.75333Q4.94215 3.84068 4.89023 3.91629Q4.8383 3.99191 4.76684 4.04942Q4.69537 4.10693 4.6104 4.14147Q4.52543 4.17602 4.43411 4.1847Q2.70857 4.34862 1.69422 5.1439Q0.625 5.9822 0.625 7.40625Q0.625 8.87418 1.7588 9.74915Q2.30284 10.169 3.04846 10.3946Q3.8097 10.625 4.6875 10.625L6.875 10.625C7.22017 10.625 7.5 10.9048 7.5 11.25C7.5 11.5952 7.22017 11.875 6.875 11.875L4.6875 11.875Q3.62471 11.875 2.6864 11.5911Q1.72097 11.2989 0.995109 10.7387Q0.226359 10.1455 -0.188851 9.31723Q-0.625 8.44721 -0.625 7.40625Q-0.625 6.3733 -0.205826 5.5288Q0.187135 4.73711 0.922969 4.1602Q2.09979 3.23755 3.91937 2.98635Q4.14732 2.42306 4.50102 1.90508Q5.00071 1.1733 5.68877 0.626693Q7.26437 -0.625 9.375 -0.625Q10.5575 -0.625 11.6305 -0.216369Q12.7044 0.192577 13.5485 0.964718Q14.4092 1.75213 14.9372 2.83269Q15.375 3.72893 15.5509 4.76237Q16.8814 4.9181 17.8401 5.52728Q18.5477 5.97689 18.9372 6.63101Q19.375 7.36601 19.375 8.29688Q19.375 9.22428 18.9947 9.94598Q18.632 10.6344 17.9496 11.09Q16.7738 11.875 14.8438 11.875L11.875 11.875C11.5298 11.875 11.25 11.5952 11.25 11.25C11.25 10.9048 11.5298 10.625 11.875 10.625ZM9.375 6.25C9.02983 6.25 8.75 6.52983 8.75 6.875L8.75 14.7428L7.3166 13.3116C7.07233 13.0677 6.6766 13.068 6.43271 13.3123C6.18883 13.5566 6.18914 13.9523 6.4334 14.1962L8.9334 16.6923Q8.97692 16.7357 9.02807 16.7699Q9.07922 16.804 9.13605 16.8275Q9.19287 16.851 9.25319 16.863Q9.3135 16.875 9.375 16.875Q9.43649 16.875 9.49681 16.863Q9.55713 16.851 9.61395 16.8275Q9.67078 16.804 9.72193 16.7699Q9.77308 16.7357 9.8166 16.6923L12.3166 14.1962C12.5609 13.9523 12.5612 13.5566 12.3173 13.3123C12.0734 13.068 11.6777 13.0677 11.4334 13.3116L10 14.7428L10 6.875C10 6.52983 9.72017 6.25 9.375 6.25Z" fill-rule="evenodd" transform="matrix(1 0 0 1 0.625 1.875)" fill="rgb(55, 65, 81)"/>
		</g>
	</g>
</svg>
