<?xml version="1.0" encoding="utf-8" ?>
<svg xmlns="http://www.w3.org/2000/svg" xmlns:xlink="http://www.w3.org/1999/xlink" width="15" height="15" viewBox="0 0 15 15">
	<path d="M7.5 0C3.35786 0 0 3.35786 0 7.5L0 7.51125C0 11.6534 3.34661 15 7.48875 15L7.5 15C11.6421 15 15 11.6534 15 7.51125L15 7.5C15 3.35786 11.6534 0 7.51125 0L7.5 0Z" fill-rule="nonzero" transform="matrix(1 0 0 1 0 0)" fill="rgb(243, 244, 246)"/>
	<defs>
		<clipPath id="clipPath9333859858">
			<path d="M0 0L11 0L11 11L0 11L0 0Z" fill-rule="nonzero" transform="matrix(1 0 0 1 2 2)"/>
		</clipPath>
	</defs>
	<g clip-path="url(#clipPath9333859858)">
		<path d="M4.29688 0C1.92758 0 0 1.92758 0 4.29688C0 6.66617 1.92758 8.59375 4.29688 8.59375C6.66617 8.59375 8.59375 6.66617 8.59375 4.29688C8.59375 1.92758 6.66617 0 4.29688 0ZM4.29688 1.76172C4.45113 1.76172 4.58279 1.81625 4.69186 1.92533C4.80093 2.0344 4.85547 2.16606 4.85547 2.32031C4.85547 2.47456 4.80093 2.60623 4.69186 2.7153C4.58279 2.82437 4.45113 2.87891 4.29688 2.87891C4.14262 2.87891 4.01096 2.82437 3.90189 2.7153C3.79282 2.60623 3.73828 2.47456 3.73828 2.32031C3.73828 2.16606 3.79282 2.0344 3.90189 1.92533C4.01096 1.81625 4.14262 1.76172 4.29688 1.76172ZM5.32812 6.61719L3.4375 6.61719C3.34258 6.61719 3.26155 6.58363 3.19443 6.5165C3.12731 6.44938 3.09375 6.36836 3.09375 6.27344C3.09375 6.17851 3.12731 6.09749 3.19443 6.03037C3.26155 5.96325 3.34258 5.92969 3.4375 5.92969L4.03906 5.92969L4.03906 4.03906L3.69531 4.03906C3.60039 4.03906 3.51937 4.0055 3.45224 3.93838C3.38512 3.87126 3.35156 3.79024 3.35156 3.69531C3.35156 3.60039 3.38512 3.51937 3.45224 3.45224C3.51937 3.38512 3.60039 3.35156 3.69531 3.35156L4.38281 3.35156C4.47774 3.35156 4.55876 3.38512 4.62588 3.45224C4.693 3.51937 4.72656 3.60039 4.72656 3.69531L4.72656 5.92969L5.32812 5.92969C5.42305 5.92969 5.50407 5.96325 5.57119 6.03037C5.63831 6.09749 5.67188 6.17851 5.67188 6.27344C5.67188 6.36836 5.63831 6.44938 5.57119 6.51651C5.50407 6.58363 5.42305 6.61719 5.32812 6.61719Z" fill-rule="nonzero" transform="matrix(1 0 0 1 3.20312 3.20312)" fill="rgb(107, 114, 128)"/>
	</g>
</svg>
