<?xml version="1.0" encoding="utf-8" ?>
<svg xmlns="http://www.w3.org/2000/svg" xmlns:xlink="http://www.w3.org/1999/xlink" width="13.8125" height="20" viewBox="0 0 13.8125 20">
	<defs>
		<clipPath id="clipPath6662524968">
			<path d="M0 0L13.8125 0L13.8125 20L0 20L0 0Z" fill-rule="nonzero" transform="matrix(1 0 0 1 0 0)"/>
		</clipPath>
	</defs>
	<g clip-path="url(#clipPath6662524968)">
		<path d="M-0.431641 0C-0.431641 0.238386 -0.238386 0.431641 0 0.431641L7.76953 0.431641C8.00792 0.431641 8.20117 0.238386 8.20117 0C8.20117 -0.238386 8.00792 -0.431641 7.76953 -0.431641L0 -0.431641C-0.238386 -0.431641 -0.431641 -0.238386 -0.431641 0ZM-0.431641 3.02148C-0.431641 3.25987 -0.238386 3.45313 0 3.45313L7.76953 3.45313C8.00792 3.45313 8.20117 3.25987 8.20117 3.02148C8.20117 2.7831 8.00792 2.58984 7.76953 2.58984L0 2.58984C-0.238386 2.58984 -0.431641 2.7831 -0.431641 3.02148ZM-0.431641 6.04297C-0.431641 6.28136 -0.238386 6.47461 0 6.47461L7.76953 6.47461C8.00792 6.47461 8.20117 6.28136 8.20117 6.04297C8.20117 5.80458 8.00792 5.61133 7.76953 5.61133L0 5.61133C-0.238386 5.61133 -0.431641 5.80458 -0.431641 6.04297Z" fill-rule="evenodd" transform="matrix(1 0 0 1 4.31641 6.97822)" fill="rgb(102, 102, 102)"/>
		<ellipse cx="0.43164062" cy="0.43164068" rx="0.43164062" ry="0.43164068" stroke-width="0.86328125" transform="matrix(1 0 0 1 1.72656 6.54695)" stroke="rgb(102, 102, 102)" fill="transparent"/>
		<ellipse cx="0.43164062" cy="0.43164068" rx="0.43164062" ry="0.43164068" stroke-width="0.86328125" transform="matrix(1 0 0 1 1.72656 9.56802)" stroke="rgb(102, 102, 102)" fill="transparent"/>
		<ellipse cx="0.43164062" cy="0.43164068" rx="0.43164062" ry="0.43164068" stroke-width="0.86328125" transform="matrix(1 0 0 1 1.72656 12.5898)" stroke="rgb(102, 102, 102)" fill="transparent"/>
	</g>
</svg>
