<?xml version="1.0" encoding="utf-8" ?>
<svg xmlns="http://www.w3.org/2000/svg" xmlns:xlink="http://www.w3.org/1999/xlink" width="13.9531" height="20" viewBox="0 0 13.9531 20">
	<defs>
		<clipPath id="clipPath1875116466">
			<path d="M0 0L13.9531 0L13.9531 20L0 20L0 0Z" fill-rule="nonzero" transform="matrix(1 0 0 1 0 0)"/>
		</clipPath>
	</defs>
	<g clip-path="url(#clipPath1875116466)">
		<defs>
			<clipPath id="clipPath6369097141">
				<path d="M0 0L13.9531 0L13.9531 13.9531L0 13.9531L0 0Z" fill-rule="nonzero" transform="matrix(1 0 0 1 0 3.02344)"/>
			</clipPath>
		</defs>
		<g clip-path="url(#clipPath6369097141)">
			<path d="M4.49199 2.04018Q4.45199 2.53636 4.23675 2.99109Q4.03006 3.42775 3.69067 3.76679Q3.34831 4.10879 2.92378 4.29877Q2.47414 4.5 2 4.5Q1.52589 4.5 1.07611 4.29886Q0.651337 4.10889 0.308844 3.76697Q-0.0308925 3.42781 -0.237476 2.99106Q-0.452743 2.53595 -0.49205 2.03946Q-0.534061 1.50826 -0.358369 1.03128Q-0.187174 0.56651 0.166818 0.215345Q0.513997 -0.129062 0.986926 -0.314221Q1.46144 -0.5 2 -0.5Q2.53897 -0.5 3.01569 -0.310258Q3.48717 -0.1226 3.83447 0.22444Q4.187 0.576707 4.35814 1.03945Q4.53425 1.51562 4.492 2.04014L4.49199 2.04018ZM3.49522 1.95985Q3.54448 1.34835 3.12763 0.93181Q2.6955 0.5 2 0.5Q1.29979 0.5 0.871085 0.92528Q0.455556 1.33749 0.50483 1.96054Q0.55547 2.60016 1.01536 3.05928Q1.45682 3.5 2 3.5Q2.54278 3.5 2.98394 3.05931Q3.4436 2.60013 3.49523 1.95982L3.49522 1.95985Z" fill-rule="nonzero" transform="matrix(1 0 0 1 5 4.00342)" fill="rgb(102, 102, 102)"/>
			<path d="M4.99987 0.5Q4.23781 0.5 3.51393 0.79693Q2.7675 1.10311 2.16089 1.6854Q1.51642 2.30402 1.10074 3.1687Q0.650004 4.10632 0.505562 5.25963Q0.483888 5.43264 0.53381 5.53768Q0.538376 5.54728 0.541033 5.55077Q0.536129 5.54434 0.525398 5.53607Q0.478562 5.5 0.416714 5.5L9.58303 5.5Q9.52136 5.5 9.47462 5.53598Q9.46389 5.54423 9.45898 5.55066Q9.46163 5.54719 9.4662 5.5376Q9.51611 5.43263 9.49444 5.25965Q9.34991 4.10635 8.89911 3.16872Q8.48338 2.30403 7.83889 1.68541Q7.23225 1.10311 6.48581 0.79693Q5.76193 0.5 4.99987 0.5L4.99987 0.5ZM4.99987 -0.5Q5.95905 -0.5 6.86532 -0.12826Q7.78761 0.250054 8.53137 0.96397Q9.30629 1.70779 9.80036 2.73542Q10.3219 3.8201 10.4867 5.13535Q10.5447 5.59821 10.3693 5.96703Q10.2626 6.19137 10.0846 6.32841Q9.86166 6.5 9.58303 6.5L0.416714 6.5Q0.13809 6.5 -0.0848097 6.32832Q-0.262754 6.19126 -0.369367 5.96695Q-0.54466 5.59813 -0.486686 5.13537Q-0.321965 3.82013 0.199478 2.73544Q0.693493 1.7078 1.46839 0.963976Q2.21214 0.250059 3.13442 -0.128259Q4.04068 -0.5 4.99987 -0.5L4.99987 -0.5Z" fill-rule="nonzero" transform="matrix(1 0 0 1 2 10.0034)" fill="rgb(102, 102, 102)"/>
		</g>
	</g>
</svg>
