<?xml version="1.0" encoding="utf-8" ?>
<svg xmlns="http://www.w3.org/2000/svg" xmlns:xlink="http://www.w3.org/1999/xlink" width="20" height="20" viewBox="0 0 20 20">
	<defs>
		<clipPath id="clipPath4264444722">
			<path d="M0 0L20 0L20 20L0 20L0 0Z" fill-rule="nonzero" transform="matrix(1 0 0 1 0 0)"/>
		</clipPath>
	</defs>
	<g clip-path="url(#clipPath4264444722)">
		<defs>
			<clipPath id="clipPath1429749361">
				<path d="M0 0L16 0L16 16L0 16L0 0Z" fill-rule="nonzero" transform="matrix(1 0 0 1 2 2)"/>
			</clipPath>
		</defs>
		<g clip-path="url(#clipPath1429749361)">
			<path d="M4.90906 0.625Q3.13455 0.625 1.87977 1.87977Q0.625 3.13454 0.625 4.90906Q0.625 6.68358 1.87977 7.93835Q3.13455 9.19312 4.90906 9.19312Q6.68358 9.19312 7.93835 7.93835Q9.19312 6.68358 9.19312 4.90906Q9.19301 3.13461 7.93826 1.87986Q6.68351 0.625113 4.90902 0.625L4.90906 0.625ZM4.9091 -0.625Q7.20131 -0.624854 8.82214 0.995981Q10.443 2.61682 10.4431 4.90906Q10.4431 7.20135 8.82223 8.82224Q7.20134 10.4431 4.90906 10.4431Q2.61678 10.4431 0.995889 8.82224Q-0.625 7.20134 -0.625 4.90906Q-0.625 2.61678 0.995889 0.995889Q2.61678 -0.625 4.90906 -0.625L4.9091 -0.625Z" fill-rule="nonzero" transform="matrix(1 0 0 1 4 4)" fill="rgb(102, 102, 102)"/>
			<path d="M-0.441942 0.441942C-0.686017 0.197866 -0.686017 -0.197866 -0.441942 -0.441942C-0.197866 -0.686017 0.197866 -0.686017 0.441942 -0.441942L3.87038 2.9865C4.11445 3.23057 4.11445 3.6263 3.87038 3.87038C3.6263 4.11445 3.23057 4.11445 2.9865 3.87038L-0.441942 0.441942Z" fill-rule="evenodd" transform="matrix(1 0 0 1 12.5719 12.5715)" fill="rgb(102, 102, 102)"/>
		</g>
	</g>
</svg>
