<?xml version="1.0" encoding="utf-8" ?>
<svg xmlns="http://www.w3.org/2000/svg" xmlns:xlink="http://www.w3.org/1999/xlink" width="20" height="20" viewBox="0 0 20 20">
	<defs>
		<clipPath id="clipPath0607058107">
			<path d="M0 0L20 0L20 20L0 20L0 0Z" fill-rule="nonzero" transform="matrix(1 0 0 1 0 0)"/>
		</clipPath>
	</defs>
	<g clip-path="url(#clipPath0607058107)">
		<path d="M7.93247 12.1847L1.19685 12.1847C0.536876 12.1847 0 11.6431 0 10.9769L0 1.20778C0 0.541778 0.536876 0 1.19685 0L7.93247 0C8.59245 0 9.12932 0.541778 9.12932 1.20778L9.12932 10.9771C9.12932 11.6431 8.59245 12.1847 7.93247 12.1847ZM1.19685 0.888889C1.02266 0.888889 0.880848 1.032 0.880848 1.20778L0.880848 10.9771C0.880848 11.1529 1.02266 11.296 1.19685 11.296L7.93247 11.296C8.10666 11.296 8.24848 11.1529 8.24848 10.9771L8.24848 1.20778C8.24848 1.032 8.10666 0.888889 7.93247 0.888889L1.19685 0.888889Z" fill-rule="nonzero" transform="matrix(1 0 0 1 0 0)" fill="rgb(232, 232, 232)"/>
		<path d="M7.93247 5.83467L1.19685 5.83467C0.536876 5.83467 0 5.29311 0 4.62689L0 1.20778C0 0.541778 0.536876 0 1.19685 0L7.93247 0C8.59245 0 9.12932 0.541778 9.12932 1.20778L9.12932 4.62711C9.12932 5.29311 8.59245 5.83467 7.93247 5.83467ZM1.19685 0.88889C1.02266 0.88889 0.880848 1.032 0.880848 1.20778L0.880848 4.62711C0.880848 4.80267 1.02266 4.94578 1.19685 4.94578L7.93247 4.94578C8.10666 4.94578 8.24848 4.80267 8.24848 4.62689L8.24848 1.20778C8.24848 1.032 8.10666 0.88889 7.93247 0.88889L1.19685 0.88889Z" fill-rule="nonzero" transform="matrix(1 0 0 1 0 14.1653)" fill="rgb(232, 232, 232)"/>
		<path d="M7.93247 12.1844L1.19685 12.1844C0.536877 12.1844 0 11.6427 0 10.9767L0 1.20756C0 0.541556 0.536877 0 1.19685 0L7.93269 0C8.59267 0 9.12954 0.541778 9.12954 1.20756L9.12954 10.9769C9.12932 11.6429 8.59267 12.1844 7.93247 12.1844ZM1.19685 0.888667C1.02266 0.888667 0.880848 1.03178 0.880848 1.20733L0.880848 10.9767C0.880848 11.1524 1.02266 11.2956 1.19685 11.2956L7.93269 11.2956C8.10666 11.2956 8.24848 11.1524 8.24848 10.9767L8.24848 1.20756C8.24848 1.03178 8.10666 0.888889 7.93247 0.888889L1.19685 0.888667Z" fill-rule="nonzero" transform="matrix(1 0 0 1 10.6892 7.81558)" fill="rgb(232, 232, 232)"/>
		<path d="M7.93247 5.83467L1.19685 5.83467C0.536877 5.83467 0 5.29289 0 4.62689L0 1.20778C0 0.541778 0.536656 0 1.19685 0L7.93269 0C8.59267 0 9.12932 0.541778 9.12932 1.20778L9.12932 4.62711C9.12932 5.29289 8.59267 5.83467 7.93247 5.83467ZM1.19685 0.888889C1.02266 0.888889 0.880848 1.032 0.880848 1.20778L0.880848 4.62711C0.880848 4.80289 1.02266 4.946 1.19685 4.946L7.93269 4.946C8.10688 4.946 8.2487 4.80289 8.2487 4.62711L8.2487 1.20778C8.24848 1.032 8.10666 0.888889 7.93247 0.888889L1.19685 0.888889Z" fill-rule="nonzero" transform="matrix(1 0 0 1 10.6892 0)" fill="rgb(232, 232, 232)"/>
	</g>
</svg>
