<?xml version="1.0" encoding="utf-8" ?>
<svg xmlns="http://www.w3.org/2000/svg" xmlns:xlink="http://www.w3.org/1999/xlink" width="20" height="20" viewBox="0 0 20 20">
	<defs>
		<clipPath id="clipPath6652739679">
			<path d="M0 0L20 0L20 20L0 20L0 0Z" fill-rule="nonzero" transform="matrix(1 0 0 1 0 0)"/>
		</clipPath>
	</defs>
	<g clip-path="url(#clipPath6652739679)">
		<defs>
			<clipPath id="clipPath4777009398">
				<path d="M0 0L20 0L20 20L0 20L0 0Z" fill-rule="nonzero" transform="matrix(1 0 0 1 0 0)"/>
			</clipPath>
		</defs>
		<g clip-path="url(#clipPath4777009398)">
			<path d="M0.624987 5.94544L3.85585 8.21966L3.49609 8.73074L3.74999 8.15964Q3.75 8.15964 3.75 8.15964Q3.75 8.15964 3.75 8.15965L3.75 0.629959Q3.75 0.629966 3.75 0.629967Q3.75 0.629966 3.75 0.629967L3.49609 0.058865L3.85585 0.569945L0.624987 2.84416Q0.624998 2.84416 0.624998 2.84416Q0.625 2.84415 0.625 2.84415L0.625 5.94558Q0.625 5.94545 0.625 5.94545Q0.625 5.94545 0.624997 5.94545L0.624987 5.94544ZM-0.0945274 6.9676Q-0.343914 6.79204 -0.484424 6.52137Q-0.624936 6.25069 -0.625 5.94558L-0.625 2.84389Q-0.624938 2.53892 -0.484424 2.26824Q-0.343912 1.99756 -0.0945176 1.822L3.13634 -0.452216Q3.18633 -0.487403 3.24219 -0.512237Q3.86215 -0.787865 4.43107 -0.418194Q5 -0.0485218 5 0.629959L5 8.15965Q5 8.83813 4.43108 9.2078Q3.86216 9.57747 3.24219 9.30185Q3.18633 9.27701 3.13634 9.24182L-0.0945175 6.9676L-0.0945274 6.9676Z" fill-rule="nonzero" transform="matrix(1 0 0 1 14.375 5.6052)" fill="rgb(102, 102, 102)"/>
			<path d="M9.21875 10.625L2.03125 10.625Q0.931255 10.6218 0.154706 9.8453Q-0.621843 9.06875 -0.624997 7.97054L-0.625 2.03125Q-0.621843 0.931254 0.154706 0.154706Q0.931254 -0.621844 2.02946 -0.624997L9.2375 -0.625Q10.3297 -0.621627 11.1007 0.149326Q11.8716 0.920281 11.875 2.01057L11.875 7.96875Q11.8718 9.06875 11.0953 9.8453Q10.3187 10.6218 9.22054 10.625L9.21875 10.625ZM9.21696 9.375Q9.79949 9.37333 10.2114 8.96141Q10.6233 8.54949 10.625 7.96875L10.625 2.01443Q10.6232 1.43965 10.2168 1.03321Q9.81035 0.626773 9.2375 0.625L2.03304 0.624997Q1.45051 0.62667 1.03859 1.03859Q0.626671 1.45051 0.625 2.03125L0.624997 7.96696Q0.62667 8.54949 1.03859 8.96141Q1.45051 9.37333 2.03125 9.375L9.21875 9.375L9.21696 9.375Z" fill-rule="nonzero" transform="matrix(1 0 0 1 1.25 5)" fill="rgb(102, 102, 102)"/>
		</g>
	</g>
</svg>
