<?xml version="1.0" encoding="utf-8" ?>
<svg xmlns="http://www.w3.org/2000/svg" xmlns:xlink="http://www.w3.org/1999/xlink" width="24" height="24" viewBox="0 0 24 24">
	<defs>
		<clipPath id="clipPath4370725531">
			<path d="M0 0L16 0L16 16L0 16L0 0Z" fill-rule="nonzero" transform="matrix(1 0 0 1 4 4)"/>
		</clipPath>
	</defs>
	<g clip-path="url(#clipPath4370725531)">
		<defs>
			<clipPath id="clipPath2775076877">
				<path d="M0 0L16 0L16 16L0 16L0 0Z" fill-rule="nonzero" transform="matrix(1 0 0 1 4 4)"/>
			</clipPath>
		</defs>
		<g clip-path="url(#clipPath2775076877)">
			<path d="M7.00207 0.67082L0.33541 4.00415L0 3.33333L0.335411 2.66251L7.00207 5.99585L6.66666 6.66667L6.33125 5.99585L12.998 2.66251L13.3334 3.33333L12.998 4.00415L6.33125 0.670821L6.66666 0L7.00207 0.67082ZM6.33125 -0.67082Q6.40936 -0.709873 6.49434 -0.729937Q6.57933 -0.75 6.66666 -0.75Q6.75398 -0.75 6.83897 -0.729937Q6.92396 -0.709874 7.00207 -0.670821L13.6688 2.66251Q13.7776 2.71694 13.8637 2.803Q13.9498 2.88906 14.0042 2.99792Q14.0372 3.06399 14.0567 3.13524Q14.0762 3.20648 14.0815 3.28016Q14.0867 3.35385 14.0775 3.42713Q14.0682 3.50042 14.0449 3.5705Q14.0215 3.64058 13.9849 3.70475Q13.9483 3.76893 13.8999 3.82473Q13.8515 3.88054 13.7932 3.92583Q13.7348 3.97112 13.6688 4.00415L7.00207 7.33749Q6.92396 7.37654 6.83897 7.39661Q6.75398 7.41667 6.66666 7.41667Q6.57933 7.41667 6.49434 7.39661Q6.40936 7.37654 6.33125 7.33749L-0.335411 4.00415Q-0.44427 3.94972 -0.53033 3.86366Q-0.616391 3.7776 -0.67082 3.66874Q-0.703855 3.60267 -0.723366 3.53142Q-0.742877 3.46018 -0.748113 3.3865Q-0.75335 3.31281 -0.744111 3.23952Q-0.734872 3.16624 -0.711512 3.09616Q-0.688153 3.02608 -0.651571 2.96191Q-0.614989 2.89773 -0.56659 2.84193Q-0.518192 2.78612 -0.459836 2.74083Q-0.40148 2.69554 -0.33541 2.66251L6.33125 -0.67082Z" fill-rule="nonzero" transform="matrix(1 0 0 1 5.33334 5.33334)" fill="rgb(142, 173, 192)"/>
			<path d="M-0.670818 -0.335416C-0.856061 0.0350633 -0.705895 0.485574 -0.335416 0.670818L6.33124 4.00422Q6.40935 4.04327 6.49434 4.06334Q6.57933 4.0834 6.66666 4.0834Q6.75398 4.0834 6.83898 4.06334Q6.92397 4.04327 7.00207 4.00422L13.6688 0.670818C14.0393 0.485576 14.1894 0.0350651 14.0042 -0.335414C13.8189 -0.705894 13.3684 -0.856061 12.9979 -0.670818L6.66666 2.49487L0.335416 -0.670818C-0.0350633 -0.856061 -0.485574 -0.705895 -0.670818 -0.335416Z" fill-rule="evenodd" transform="matrix(1 0 0 1 5.33334 15.3333)" fill="rgb(142, 173, 192)"/>
			<path d="M-0.335408 0.670822C-0.705889 0.485582 -0.856061 0.0350735 -0.670822 -0.335408C-0.485582 -0.705889 -0.0350735 -0.856061 0.335408 -0.670822L-0.335408 0.670822ZM12.998 -0.670822L6.66666 2.49478L0.335408 -0.670822L-0.335408 0.670822L6.33125 4.00412Q6.40936 4.04317 6.49435 4.06324Q6.57933 4.0833 6.66666 4.0833Q6.75398 4.0833 6.83897 4.06324Q6.92396 4.04317 7.00207 4.00412L13.6688 0.670822C14.0392 0.485584 14.1894 0.0350758 14.0042 -0.335406C13.8189 -0.705888 13.3684 -0.856061 12.998 -0.670822Z" fill-rule="evenodd" transform="matrix(1 0 0 1 5.33334 12)" fill="rgb(142, 173, 192)"/>
		</g>
	</g>
</svg>
