<?xml version="1.0" encoding="utf-8" ?>
<svg xmlns="http://www.w3.org/2000/svg" xmlns:xlink="http://www.w3.org/1999/xlink" width="18.5781" height="18.5781" viewBox="0 0 18.5781 18.5781">
	<defs>
		<clipPath id="clipPath6454780755">
			<path d="M0 0L18.5781 0L18.5781 18.5781L0 18.5781L0 0Z" fill-rule="nonzero" transform="matrix(1 0 0 1 0 0)"/>
		</clipPath>
	</defs>
	<g clip-path="url(#clipPath6454780755)">
		<defs>
			<clipPath id="clipPath4957333737">
				<path d="M0 0L18.5781 0L18.5781 18.5781L0 18.5781L0 0Z" fill-rule="nonzero" transform="matrix(1 0 0 1 0 0)"/>
			</clipPath>
		</defs>
		<g clip-path="url(#clipPath4957333737)">
			<path d="M11.0307 12.399L11.0307 0.808937Q11.0305 0.728107 10.9604 0.662983Q10.872 0.580923 10.7389 0.580564L0.870848 0.580566Q0.73927 0.580923 0.650929 0.662983Q0.580821 0.728107 0.580563 0.810751L0.580566 12.6733Q0.581546 12.9772 0.821502 13.2001Q1.07969 13.44 1.45303 13.441L13.353 13.441L13.353 14.6021L1.4498 14.6021Q0.622239 14.5998 0.0312552 14.0509Q-0.577958 13.485 -0.580566 12.6733L-0.580563 0.807122Q-0.578729 0.220428 -0.139317 -0.187744Q0.281861 -0.578979 0.870848 -0.580566L10.742 -0.580564Q11.3295 -0.578979 11.7506 -0.187744Q12.19 0.220429 12.1919 0.808937L12.1919 12.399L11.0307 12.399Z" fill-rule="nonzero" transform="matrix(1 0 0 1 1.7417 2.27827)" fill="rgb(102, 102, 102)"/>
			<path d="M1.7417 11.9057Q0.792217 11.9057 0.115007 11.2766Q-0.580566 10.6305 -0.580566 9.70724L-0.580566 0Q-0.580566 -0.0571807 -0.56941 -0.113263Q-0.558255 -0.169345 -0.536373 -0.222173Q-0.51449 -0.275001 -0.482723 -0.322545Q-0.450955 -0.370089 -0.410522 -0.410522Q-0.370089 -0.450955 -0.322545 -0.482723Q-0.275001 -0.514491 -0.222173 -0.536373Q-0.169345 -0.558255 -0.113263 -0.56941Q-0.0571807 -0.580566 0 -0.580566L2.61255 -0.580566Q3.2013 -0.580566 3.62345 -0.188432Q4.06396 0.220758 4.06396 0.808937L4.06396 9.70724Q4.06396 10.6305 3.36838 11.2766Q2.69118 11.9057 1.7417 11.9057ZM1.7417 10.7445Q2.23509 10.7445 2.57814 10.4259Q2.90283 10.1243 2.90283 9.70724L2.90283 0.808937Q2.90283 0.726969 2.8332 0.662295Q2.74522 0.580566 2.61255 0.580566L0 0.580566L0 0L0.580566 0L0.580566 9.70724Q0.580566 10.1243 0.905255 10.4259Q1.24831 10.7445 1.7417 10.7445Z" fill-rule="nonzero" transform="matrix(1 0 0 1 13.353 4.97473)" fill="rgb(102, 102, 102)"/>
			<path d="M4.06396 0C4.06396 0.320635 4.32389 0.580566 4.64453 0.580566L6.96679 0.580566C7.28742 0.580566 7.54735 0.320635 7.54735 0C7.54735 -0.320635 7.28742 -0.580566 6.96679 -0.580566L4.64453 -0.580566C4.32389 -0.580566 4.06396 -0.320635 4.06396 0ZM4.06396 2.15716C4.06396 2.4778 4.32389 2.73773 4.64453 2.73773L6.96679 2.73773C7.28742 2.73773 7.54735 2.4778 7.54735 2.15716C7.54735 1.83653 7.28742 1.5766 6.96679 1.5766L4.64453 1.5766C4.32389 1.5766 4.06396 1.83653 4.06396 2.15716ZM-0.580566 4.31433C-0.580566 4.63496 -0.320635 4.89489 0 4.89489L6.96679 4.89489C7.28742 4.89489 7.54735 4.63496 7.54735 4.31433C7.54735 3.99369 7.28742 3.73376 6.96679 3.73376L0 3.73376C-0.320635 3.73376 -0.580566 3.99369 -0.580566 4.31433ZM-0.580566 6.47149C-0.580566 6.79213 -0.320635 7.05206 0 7.05206L6.96679 7.05206C7.28742 7.05206 7.54735 6.79213 7.54735 6.47149C7.54735 6.15086 7.28742 5.89093 6.96679 5.89093L0 5.89093C-0.320635 5.89093 -0.580566 6.15086 -0.580566 6.47149ZM-0.580566 8.62866C-0.580566 8.94929 -0.320635 9.20922 0 9.20922L6.96679 9.20922C7.28742 9.20922 7.54735 8.94929 7.54735 8.62866C7.54735 8.30802 7.28742 8.04809 6.96679 8.04809L0 8.04809C-0.320635 8.04809 -0.580566 8.30802 -0.580566 8.62866Z" fill-rule="evenodd" transform="matrix(1 0 0 1 4.06396 4.97473)" fill="rgb(102, 102, 102)"/>
			<path d="M2.90283 3.23575L0.580566 3.23575C0.420247 3.23575 0.283406 3.18309 0.170044 3.07779C0.0566813 2.97249 0 2.84538 0 2.69646L0 0.539291C0 0.39037 0.0566813 0.263258 0.170044 0.157955C0.283406 0.0526516 0.420247 0 0.580566 0L2.90283 0C3.06315 0 3.19999 0.0526514 3.31335 0.157954C3.42671 0.263257 3.48339 0.39037 3.48339 0.539291L3.48339 2.69646C3.48339 2.84538 3.42671 2.97249 3.31335 3.07779C3.19999 3.18309 3.06315 3.23575 2.90283 3.23575Z" fill-rule="nonzero" transform="matrix(1 0 0 1 3.4834 4.43544)" fill="rgb(102, 102, 102)"/>
		</g>
	</g>
</svg>
