<?xml version="1.0" encoding="utf-8" ?>
<svg xmlns="http://www.w3.org/2000/svg" xmlns:xlink="http://www.w3.org/1999/xlink" width="20" height="20" viewBox="0 0 20 20">
	<defs>
		<clipPath id="clipPath5370037353">
			<path d="M0 0L20 0L20 20L0 20L0 0Z" fill-rule="nonzero" transform="matrix(1 0 0 1 0 0)"/>
		</clipPath>
	</defs>
	<g clip-path="url(#clipPath5370037353)">
		<defs>
			<clipPath id="clipPath9560646086">
				<path d="M0 0L20 0L20 20L0 20L0 0Z" fill-rule="nonzero" transform="matrix(1 0 0 1 0 0)"/>
			</clipPath>
		</defs>
		<g clip-path="url(#clipPath9560646086)">
			<path d="M8.75 2.17815Q8.02802 1.05296 6.64986 0.394513Q6.38774 0.269275 6.09704 0.159417Q4.06231 -0.609538 0.627808 -0.624988L0.627363 -0.62499Q0.107812 -0.62695 -0.259569 -0.259569Q-0.62695 0.107811 -0.624995 0.625005L-0.624995 11.7996Q-0.624995 12.3275 -0.308099 12.6997Q0.0540081 13.125 0.625007 13.125Q4.02683 13.125 5.91151 13.7834Q6.7238 14.0672 7.3205 14.4922Q7.83964 14.862 8.26178 15.3902Q8.30523 15.4446 8.35959 15.4881Q8.45667 15.5657 8.57608 15.6003Q8.69549 15.6349 8.81905 15.6212Q8.94261 15.6074 9.0515 15.5475Q9.1604 15.4875 9.23806 15.3904Q9.66292 14.8593 10.1826 14.489Q10.7792 14.0638 11.5909 13.7807Q13.4705 13.125 16.875 13.125Q17.3928 13.125 17.7589 12.7589Q18.125 12.3928 18.125 11.875L18.125 0.627364Q18.127 0.107814 17.7596 -0.25957Q17.3922 -0.626948 16.8722 -0.624988Q12.9471 -0.607387 10.8501 0.394513Q9.472 1.05296 8.75 2.17815ZM8.12501 3.8307L8.12501 13.5316Q8.08562 13.5025 8.04573 13.4741Q7.30407 12.9458 6.32375 12.6033Q4.24185 11.876 0.635276 11.875Q0.625005 11.85 0.625005 11.7996L0.625005 0.625012Q3.69001 0.639039 5.48112 1.2648Q5.81868 1.38273 6.11099 1.52239Q6.85166 1.87627 7.32918 2.38046Q7.39739 2.45249 7.46024 2.52758Q7.8905 3.04171 8.09829 3.73717Q8.11214 3.78354 8.12501 3.8307ZM16.4292 0.63042Q16.6487 0.626048 16.875 0.625012L16.875 11.875Q13.2587 11.875 11.1792 12.6005Q10.1991 12.9424 9.45716 13.471Q9.41583 13.5005 9.37501 13.5307L9.37501 3.8307Q9.58082 3.07598 10.0398 2.52758Q10.5425 1.92682 11.389 1.52239Q13.1178 0.696409 16.4292 0.63042Z" fill-rule="evenodd" transform="matrix(1 0 0 1 1.24999 2.49999)" fill="rgb(102, 102, 102)"/>
		</g>
	</g>
</svg>
