<?xml version="1.0" encoding="utf-8" ?>
<svg xmlns="http://www.w3.org/2000/svg" xmlns:xlink="http://www.w3.org/1999/xlink" width="20" height="20" viewBox="0 0 20 20">
	<defs>
		<clipPath id="clipPath7274651217">
			<path d="M0 0L20 0L20 20L0 20L0 0Z" fill-rule="nonzero" transform="matrix(1 0 0 1 0 0)"/>
		</clipPath>
	</defs>
	<g clip-path="url(#clipPath7274651217)">
		<defs>
			<clipPath id="clipPath7136715570">
				<path d="M0 0L20 0L20 20L0 20L0 0Z" fill-rule="nonzero" transform="matrix(1 0 0 1 0 0)"/>
			</clipPath>
		</defs>
		<g clip-path="url(#clipPath7136715570)">
			<path d="M11.25 1.25C11.25 1.62021 11.0891 1.95282 10.8333 2.18171L10.8333 3.75L15 3.75C16.3808 3.75 17.5 4.86929 17.5 6.25L17.5 14.5833C17.5 15.9641 16.3808 17.0833 15 17.0833L5 17.0833C3.61929 17.0833 2.5 15.9641 2.5 14.5833L2.5 6.25C2.5 4.86929 3.61929 3.75 5 3.75L9.16667 3.75L9.16667 2.18171C8.91092 1.95282 8.75 1.62021 8.75 1.25C8.75 0.559642 9.30967 0 10 0C10.6903 0 11.25 0.559642 11.25 1.25ZM5 5.41667C4.53977 5.41667 4.16667 5.78977 4.16667 6.25L4.16667 14.5833C4.16667 15.0436 4.53977 15.4167 5 15.4167L15 15.4167C15.4602 15.4167 15.8333 15.0436 15.8333 14.5833L15.8333 6.25C15.8333 5.78977 15.4602 5.41667 15 5.41667L10.8333 5.41667L9.16667 5.41667L5 5.41667ZM1.66667 7.91667L0 7.91667L0 12.9167L1.66667 12.9167L1.66667 7.91667ZM18.3333 7.91667L20 7.91667L20 12.9167L18.3333 12.9167L18.3333 7.91667ZM7.5 11.6667C8.19036 11.6667 8.75 11.107 8.75 10.4167C8.75 9.72633 8.19036 9.16667 7.5 9.16667C6.80964 9.16667 6.25 9.72633 6.25 10.4167C6.25 11.107 6.80964 11.6667 7.5 11.6667ZM12.5 11.6667C13.1903 11.6667 13.75 11.107 13.75 10.4167C13.75 9.72633 13.1903 9.16667 12.5 9.16667C11.8097 9.16667 11.25 9.72633 11.25 10.4167C11.25 11.107 11.8097 11.6667 12.5 11.6667Z" fill-rule="nonzero" transform="matrix(1 0 0 1 0 0.416667)" fill="rgb(75, 85, 99)"/>
		</g>
	</g>
</svg>
