<?xml version="1.0" encoding="utf-8" ?>
<svg xmlns="http://www.w3.org/2000/svg" xmlns:xlink="http://www.w3.org/1999/xlink" width="20.3672" height="20.3647" viewBox="0 0 20.3672 20.3647">
	<defs>
		<clipPath id="clipPath7611540475">
			<path d="M0 0L20 0L20 20L0 20L0 0Z" fill-rule="nonzero" transform="matrix(0.999831 0.0184092 -0.0184092 0.999831 0.368187 -2.47955e-05)"/>
		</clipPath>
	</defs>
	<g clip-path="url(#clipPath7611540475)">
		<path d="M-0.662913 -0.662913C-1.02903 -0.296799 -1.02903 0.296799 -0.662913 0.662913L4.96209 6.28791Q5.09395 6.41977 5.26623 6.49114Q5.43852 6.5625 5.625 6.5625Q5.81148 6.5625 5.98377 6.49114Q6.15605 6.41977 6.28791 6.28791L11.9129 0.662913C12.279 0.296799 12.279 -0.296799 11.9129 -0.662913C11.5468 -1.02903 10.9532 -1.02903 10.5871 -0.662912L5.625 4.29918L0.662913 -0.662913C0.296799 -1.02903 -0.296799 -1.02903 -0.662913 -0.662913Z" fill-rule="evenodd" transform="matrix(0.999831 0.0184092 -0.0184092 0.999831 4.61013 7.2668)" fill="rgb(156, 163, 175)"/>
	</g>
</svg>
