<?xml version="1.0" encoding="utf-8" ?>
<svg xmlns="http://www.w3.org/2000/svg" xmlns:xlink="http://www.w3.org/1999/xlink" width="12" height="12" viewBox="0 0 12 12">
	<defs>
		<clipPath id="clipPath0737389489">
			<path d="M0 0L12 0L12 12L0 12L0 0Z" fill-rule="nonzero" transform="matrix(1 0 0 1 0 0)"/>
		</clipPath>
	</defs>
	<g clip-path="url(#clipPath0737389489)">
		<path d="M0 -0.5625C-0.310658 -0.5625 -0.5625 -0.310658 -0.5625 0L-0.5625 2.5Q-0.5625 2.61189 -0.519682 2.71526Q-0.476864 2.81864 -0.397747 2.89775L1.10225 4.39775C1.32192 4.61741 1.67808 4.61741 1.89775 4.39774C2.11742 4.17808 2.11742 3.82192 1.89775 3.60225L0.5625 2.26701L0.5625 0C0.5625 -0.310658 0.310658 -0.5625 0 -0.5625Z" fill-rule="evenodd" transform="matrix(1 0 0 1 6 3.5)" fill="rgb(107, 114, 128)"/>
		<path d="M4.5 8.4375Q5.30147 8.4375 6.03251 8.1283Q6.73903 7.82947 7.28427 7.28423Q7.82951 6.73899 8.12835 6.03248Q8.43754 5.30146 8.43754 4.50001Q8.43754 3.69855 8.12835 2.96752Q7.82951 2.26101 7.28427 1.71577Q6.73903 1.17053 6.03251 0.871698Q5.30147 0.5625 4.5 0.5625Q3.69854 0.5625 2.96752 0.871697Q2.26101 1.17053 1.71577 1.71577Q1.17053 2.26101 0.871698 2.96752Q0.5625 3.69855 0.5625 4.50001Q0.5625 5.30146 0.871697 6.03248Q1.17053 6.73899 1.71577 7.28423Q2.261 7.82947 2.96752 8.1283Q3.69854 8.4375 4.5 8.4375ZM4.5 9.5625Q3.47041 9.5625 2.52927 9.16443Q1.62066 8.78012 0.920271 8.07973Q0.219875 7.37933 -0.164433 6.47073Q-0.5625 5.52959 -0.5625 4.50001Q-0.5625 3.47041 -0.164433 2.52928Q0.219875 1.62067 0.920271 0.920273Q1.62067 0.219875 2.52927 -0.164433Q3.47041 -0.5625 4.5 -0.5625Q5.5296 -0.5625 6.47075 -0.164434Q7.37936 0.219872 8.07976 0.920271Q8.78016 1.62067 9.16448 2.52928Q9.56254 3.47041 9.56254 4.50001Q9.56255 5.5296 9.16448 6.47073Q8.78016 7.37933 8.07976 8.07973Q7.37936 8.78013 6.47075 9.16443Q5.5296 9.5625 4.5 9.5625Z" fill-rule="nonzero" transform="matrix(1 0 0 1 1.50003 1.5)" fill="rgb(107, 114, 128)"/>
	</g>
</svg>
