<?xml version="1.0" encoding="utf-8" ?>
<svg xmlns="http://www.w3.org/2000/svg" xmlns:xlink="http://www.w3.org/1999/xlink" width="18" height="18" viewBox="0 0 18 18">
	<defs>
		<clipPath id="clipPath6264043994">
			<path d="M0 0L18 0L18 18L0 18L0 0Z" fill-rule="nonzero" transform="matrix(1 0 0 1 0 0)"/>
		</clipPath>
	</defs>
	<g clip-path="url(#clipPath6264043994)">
		<path d="M9 14.25L1.5 14.25Q0.568018 14.25 -0.0909914 13.591Q-0.75 12.932 -0.75 12L-0.75 1.5Q-0.75 0.568019 -0.0909898 -0.0909905Q0.56802 -0.75 1.5 -0.75L5.6895 -0.75Q5.988 -0.749936 6.26362 -0.635715Q6.53923 -0.521493 6.75016 -0.310501L10.8106 3.74992Q11.0215 3.96077 11.1357 4.23638Q11.2499 4.512 11.25 4.81034L11.25 12Q11.25 12.932 10.591 13.591Q9.93198 14.25 9 14.25ZM9 12.75Q9.31066 12.75 9.53033 12.5303Q9.75 12.3107 9.75 12L9.74992 4.81058L5.6895 0.75L1.5 0.75Q1.18934 0.75 0.96967 0.96967Q0.75 1.18934 0.75 1.5L0.75 12Q0.75 12.3107 0.969671 12.5303Q1.18934 12.75 1.5 12.75L9 12.75ZM3 7.5C2.58579 7.5 2.25 7.16421 2.25 6.75C2.25 6.33579 2.58579 6 3 6L7.5 6C7.91421 6 8.25 6.33579 8.25 6.75C8.25 7.16421 7.91421 7.5 7.5 7.5L3 7.5ZM3 10.5C2.58579 10.5 2.25 10.1642 2.25 9.75C2.25 9.33579 2.58579 9 3 9L7.5 9C7.91421 9 8.25 9.33579 8.25 9.75C8.25 10.1642 7.91421 10.5 7.5 10.5L3 10.5Z" fill-rule="evenodd" transform="matrix(1 0 0 1 3.75 2.25)" fill="rgb(107, 114, 128)"/>
	</g>
</svg>
