<?xml version="1.0" encoding="UTF-8"?><svg id="Layer_1" xmlns="http://www.w3.org/2000/svg" viewBox="0 0 90.44 90.68"><defs><style>.cls-1{fill:#fbfcfc;}.cls-2{fill:#0f3e65;}.cls-3{fill:#00bae3;}</style></defs><g id="IZHrlL.tif"><path class="cls-2" d="M85.5,3.96v67.23c-.65,7.82-6.85,14.03-14.68,14.67H3.6s0-68.12,0-68.12c.42-1.27.63-2.61,1.12-3.86,1.78-4.5,5.7-7.98,10.34-9.31l2.46-.61h67.98ZM14.25,36.11c-.12.73,0,2.06,0,2.87,0,.01.19.2.2.2h8.05c.95,0,2.48,1.1,3.07,1.85,2.01,2.55,1.51,7.02-1.37,8.72-.29.17-1.3.63-1.56.63h-8.19s-.2.19-.2.2v2.87c0,.58.84,1.37,1.43,1.44,2.03.24,7.13.13,9.08-.34,9.81-2.4,9.82-17.08,0-19.52-1.94-.48-7.06-.58-9.08-.34-.66.08-1.32.79-1.43,1.44ZM49.46,34.68h-15.08c-.72,0-1.84,1.42-1.84,2.12v2.12h15.36c.35,0,1.57-1.22,1.57-1.57v-2.66ZM58.68,34.68h-6.07v20.34h2.66c.53,0,1.62-.77,1.9-1.24.05-.09.35-.83.35-.88v-10.99l4.2,9.93c.91,1.5,2.83,1.73,3.96.36l4.25-9.87v12.7h2.53c.35,0,1.38-.52,1.64-.81.21-.23.74-1.31.74-1.58v-17.95h-5.94c-.34,0-1.07.74-1.26,1.06l-3.79,9.18-3.84-9.13c-.18-.45-.89-1.03-1.35-1.11ZM38.54,55.15h3.21c.72,0,1.84-1.42,1.84-2.12v-12.01s-.19-.2-.2-.2h-3.14c-.62,0-1.71.95-1.71,1.57v12.76Z"/><path class="cls-3" d="M58.68,34.68c.46.08,1.16.66,1.35,1.11l3.84,9.13,3.79-9.18c.19-.32.92-1.06,1.26-1.06h5.94v17.95c0,.26-.53,1.34-.74,1.58-.27.29-1.29.81-1.64.81h-2.53v-12.7l-4.25,9.87c-1.14,1.37-3.06,1.14-3.96-.36l-4.2-9.93v10.99s-.3.79-.35.88c-.28.47-1.37,1.24-1.9,1.24h-2.66v-20.34h6.07Z"/><path class="cls-1" d="M14.25,36.11c.11-.65.77-1.36,1.43-1.44,2.02-.24,7.14-.14,9.08.34,9.82,2.44,9.81,17.13,0,19.52-1.95.48-7.05.58-9.08.34-.59-.07-1.43-.86-1.43-1.44v-2.87s.19-.2.2-.2h8.19c.26,0,1.27-.46,1.56-.63,2.89-1.7,3.38-6.17,1.37-8.72-.59-.75-2.12-1.85-3.07-1.85h-8.05s-.2-.19-.2-.2c0-.81-.12-2.14,0-2.87Z"/><path class="cls-1" d="M38.54,55.15v-12.76c0-.62,1.08-1.57,1.71-1.57h3.14s.2.19.2.2v12.01c0,.69-1.13,2.12-1.84,2.12h-3.21Z"/><path class="cls-1" d="M49.46,34.68v2.66c0,.35-1.22,1.57-1.57,1.57h-15.36v-2.12c0-.69,1.13-2.12,1.84-2.12h15.08Z"/></g></svg>