<?xml version="1.0" encoding="UTF-8"?>
<svg id="Layer_1" xmlns="http://www.w3.org/2000/svg" version="1.1" viewBox="0 0 1275.12 1225.43">
  <!-- Generator: Adobe Illustrator 29.7.1, SVG Export Plug-In . SVG Version: 2.1.1 Build 8)  -->
  <defs>
    <style>
      .st0 {
        fill: none;
        stroke: #cee1c1;
        stroke-linecap: round;
        stroke-miterlimit: 10;
        stroke-width: 28px;
      }

      .st1 {
        fill: #cee1c1;
      }
    </style>
  </defs>
  <path class="st0" d="M833.45,622.12v96.07c0,55.59-45.06,100.65-100.65,100.65h-192.13c-55.59,0-100.65-45.06-100.65-100.65v-192.13c0-55.59,45.06-100.65,100.65-100.65h96.07"/>
  <g>
    <path class="st1" d="M708.49,630.13c3.21,7.6,5.81,15.52,7.75,23.7.44,1.87,2.1,3.21,4.02,3.21h.07c1.92,0,3.58-1.34,4.02-3.21,1.94-8.18,4.54-16.1,7.75-23.7,18.41-43.53,56.77-76.57,103.62-87.67,1.87-.44,3.21-2.1,3.21-4.02v-.07c0-1.92-1.34-3.58-3.21-4.02-46.85-11.1-85.21-44.14-103.62-87.67-3.21-7.6-5.81-15.52-7.75-23.7-.44-1.87-2.1-3.21-4.02-3.21h-.07c-1.92,0-3.58,1.34-4.02,3.21-1.94,8.18-4.54,16.1-7.75,23.7-18.41,43.53-56.77,76.57-103.62,87.67-1.87.44-3.21,2.1-3.21,4.02v.07c0,1.92,1.34,3.58,3.21,4.02,46.85,11.1,85.21,44.14,103.62,87.67Z"/>
    <path class="st1" d="M571.91,732.21c1.83,4.33,3.32,8.85,4.42,13.52.25,1.07,1.2,1.83,2.29,1.83h.04c1.1,0,2.04-.77,2.29-1.83,1.1-4.66,2.59-9.18,4.42-13.52,10.5-24.83,32.38-43.67,59.1-50.01,1.07-.25,1.83-1.2,1.83-2.29v-.04c0-1.09-.77-2.04-1.83-2.29-26.72-6.33-48.6-25.18-59.1-50.01-1.83-4.33-3.32-8.85-4.42-13.52-.25-1.07-1.2-1.83-2.29-1.83h-.04c-1.1,0-2.04.77-2.29,1.83-1.1,4.66-2.59,9.18-4.42,13.52-10.5,24.83-32.38,43.67-59.1,50.01-1.07.25-1.83,1.2-1.83,2.29v.04c0,1.09.77,2.04,1.83,2.29,26.72,6.33,48.6,25.18,59.1,50.01Z"/>
  </g>
</svg>