<svg id="eFuIC1rokcb1" xmlns="http://www.w3.org/2000/svg" xmlns:xlink="http://www.w3.org/1999/xlink" viewBox="0 0 377.42 162.82" shape-rendering="geometricPrecision" text-rendering="geometricPrecision" project-id="1cbb2aa2bffd441a8ec008eadb091c72" export-id="fe43cff8831d41e1919222d5703c172a" cached="false"><defs><linearGradient id="eFuIC1rokcb6-fill" x1="354.97" y1="66.54" x2="354.97" y2="9.87" spreadMethod="pad" gradientUnits="userSpaceOnUse" gradientTransform="translate(0 0)"><stop id="eFuIC1rokcb6-fill-0" offset="0%" stop-color="#fed830"/><stop id="eFuIC1rokcb6-fill-1" offset="100%" stop-color="#fbaf17"/></linearGradient></defs><polygon fill="currentColor" points="0,10.18 101.97,10.18 101.97,40.7 33.07,40.7 33.07,68.69 98.16,68.69 98.16,99.22 33.07,99.22 33.07,129.74 105.79,129.74 105.79,160.27 0,160.27 0,10.18"/><rect fill="currentColor" width="31.8" height="160.27" rx="0" ry="0" transform="translate(128.68 0)"/><rect fill="currentColor" width="31.8" height="160.27" rx="0" ry="0" transform="translate(183.8 0)"/><path fill="currentColor" d="M330.29,85.12c-1.42-6.57-3.92-12.12-7.53-16.64-3.6-4.52-8.41-7.95-14.42-10.28s-13.67-3.5-23-3.5c-8.48,0-16.68,1.38-24.59,4.13-7.92,2.76-14.84,6.89-20.78,12.4l16.96,17.38c3.39-3.82,7.24-6.82,11.55-9.01s9.08-3.29,14.31-3.29c5.51,0,10.28,1.66,14.31,4.98s6.04,7.81,6.04,13.46c-4.38,0-9.15.07-14.31.21s-10.32.57-15.48,1.27c-5.16.71-10.14,1.8-14.95,3.29-4.81,1.48-9.08,3.57-12.83,6.25-3.75,2.69-6.71,6.08-8.9,10.18s-3.29,9.12-3.29,15.05c0,5.23.99,9.83,2.97,13.78c1.98,3.96,4.66,7.28,8.06,9.96c3.39,2.69,7.31,4.7,11.77,6.04c4.45,1.34,9.08,2.01,13.89,2.01c6.5,0,12.68-1.2,18.55-3.6c5.86-2.4,10.56-6.36,14.1-11.87h.42v12.93h29.26v-52.36c0-8.62-.71-16.22-2.12-22.79l.01.02ZM303.16,121.9c0,3.25-.67,6.08-2.01,8.48s-3.15,4.38-5.41,5.94-4.84,2.76-7.74,3.6c-2.9.85-5.9,1.27-9.01,1.27-3.53,0-6.93-.92-10.18-2.76-3.25-1.83-4.88-4.66-4.88-8.48c0-3.53,1.17-6.29,3.5-8.27s5.16-3.46,8.48-4.45s6.78-1.59,10.39-1.8c3.6-.21,6.61-.32,9.01-.32h7.84v6.78l.01.01Z" transform="translate(.12 0)"/><path d="M370.73,9.87h-31.52c-3.7,0-6.69,3-6.69,6.69v31.52c0,3.7,3,6.69,6.69,6.69v11.48c0,.26.31.39.49.2l11.68-11.68h19.35c3.7,0,6.69-3,6.69-6.69v-31.52c0-3.7-3-6.69-6.69-6.69ZM357.85,44.44l-2.01-4.94h-9.06l-1.94,4.94h-5.67L349.26,21.1h4.25l10.15,23.34h-5.8-.01Zm12.53,0h-4.94v-16.02h4.94v16.02Zm-.45-19.04c-.56.56-1.24.84-2.03.84s-1.47-.28-2.03-.84-.84-1.24-.84-2.03.28-1.47.84-2.03s1.24-.84,2.03-.84s1.47.28,2.03.84.84,1.24.84,2.03-.28,1.47-.84,2.03Z" fill="url(#eFuIC1rokcb6-fill)"/></svg>
