<?xml version="1.0" encoding="UTF-8"?>
<svg id="Layer_1" xmlns="http://www.w3.org/2000/svg" xmlns:xlink="http://www.w3.org/1999/xlink" version="1.1" viewBox="0 0 90.44 97.36">
  <!-- Generator: Adobe Illustrator 29.7.1, SVG Export Plug-In . SVG Version: 2.1.1 Build 8)  -->
  <defs>
    <style>
      .st0 {
        fill: url(#linear-gradient);
      }

      .st1 {
        fill: #fbfcfc;
      }

      .st2 {
        fill: #0f3e65;
      }

      .st3 {
        fill: #00bae3;
      }

      .st4 {
        display: none;
      }
    </style>
    <linearGradient id="linear-gradient" x1="45.22" y1="22.72" x2="45.22" y2="115.32" gradientTransform="translate(0 118.38) scale(1 -1)" gradientUnits="userSpaceOnUse">
      <stop offset="0" stop-color="#fed830"/>
      <stop offset="1" stop-color="#fbaf17"/>
    </linearGradient>
  </defs>
  <g id="eFuIC1rokcb1" shape-rendering="geometricPrecision" text-rendering="geometricPrecision">
    <path class="st0" d="M70.97,3.06H19.47c-6.05,0-10.93,4.9-10.93,10.93v51.5c0,6.05,4.9,10.93,10.93,10.93v18.76c0,.42.51.64.8.33l19.08-19.08h31.62c6.05,0,10.93-4.9,10.93-10.93V13.99c0-6.05-4.9-10.93-10.93-10.93ZM49.93,59.55l-3.28-8.07h-14.8l-3.17,8.07h-9.26l16.49-38.13h6.94l16.58,38.13h-9.5ZM70.4,59.55h-8.07v-26.17h8.07v26.17ZM69.66,28.44c-.91.91-2.03,1.37-3.32,1.37s-2.4-.46-3.32-1.37-1.37-2.03-1.37-3.32.46-2.4,1.37-3.32,2.03-1.37,3.32-1.37,2.4.46,3.32,1.37,1.37,2.03,1.37,3.32-.46,2.4-1.37,3.32Z"/>
  </g>
  <g id="IZHrlL.tif" class="st4">
    <g>
      <path class="st2" d="M85.5,6.13v67.23c-.65,7.82-6.85,14.03-14.68,14.67H3.6V19.91c.42-1.27.63-2.61,1.12-3.86,1.78-4.5,5.7-7.98,10.34-9.31l2.46-.61s67.98,0,67.98,0ZM14.25,38.28c-.12.73,0,2.06,0,2.87,0,0,.19.2.2.2h8.05c.95,0,2.48,1.1,3.07,1.85,2.01,2.55,1.51,7.02-1.37,8.72-.29.17-1.3.63-1.56.63h-8.19s-.2.19-.2.2v2.87c0,.58.84,1.37,1.43,1.44,2.03.24,7.13.13,9.08-.34,9.81-2.4,9.82-17.08,0-19.52-1.94-.48-7.06-.58-9.08-.34-.66.08-1.32.79-1.43,1.44v-.02ZM49.46,36.85h-15.08c-.72,0-1.84,1.42-1.84,2.12v2.12h15.36c.35,0,1.57-1.22,1.57-1.57v-2.66h0ZM58.68,36.85h-6.07v20.34h2.66c.53,0,1.62-.77,1.9-1.24.05-.09.35-.83.35-.88v-10.99l4.2,9.93c.91,1.5,2.83,1.73,3.96.36l4.25-9.87v12.7h2.53c.35,0,1.38-.52,1.64-.81.21-.23.74-1.31.74-1.58v-17.95h-5.94c-.34,0-1.07.74-1.26,1.06l-3.79,9.18-3.84-9.13c-.18-.45-.89-1.03-1.35-1.11h.02ZM38.54,57.32h3.21c.72,0,1.84-1.42,1.84-2.12v-12.01s-.19-.2-.2-.2h-3.14c-.62,0-1.71.95-1.71,1.57v12.76Z"/>
      <path class="st3" d="M58.68,36.85c.46.08,1.16.66,1.35,1.11l3.84,9.13,3.79-9.18c.19-.32.92-1.06,1.26-1.06h5.94v17.95c0,.26-.53,1.34-.74,1.58-.27.29-1.29.81-1.64.81h-2.53v-12.7l-4.25,9.87c-1.14,1.37-3.06,1.14-3.96-.36l-4.2-9.93v10.99s-.3.79-.35.88c-.28.47-1.37,1.24-1.9,1.24h-2.66v-20.34h6.07-.02Z"/>
      <path class="st1" d="M14.25,38.28c.11-.65.77-1.36,1.43-1.44,2.02-.24,7.14-.14,9.08.34,9.82,2.44,9.81,17.13,0,19.52-1.95.48-7.05.58-9.08.34-.59-.07-1.43-.86-1.43-1.44v-2.87s.19-.2.2-.2h8.19c.26,0,1.27-.46,1.56-.63,2.89-1.7,3.38-6.17,1.37-8.72-.59-.75-2.12-1.85-3.07-1.85h-8.05s-.2-.19-.2-.2c0-.81-.12-2.14,0-2.87v.02Z"/>
      <path class="st1" d="M38.54,57.32v-12.76c0-.62,1.08-1.57,1.71-1.57h3.14s.2.19.2.2v12.01c0,.69-1.13,2.12-1.84,2.12,0,0-3.21,0-3.21,0Z"/>
      <path class="st1" d="M49.46,36.85v2.66c0,.35-1.22,1.57-1.57,1.57h-15.36v-2.12c0-.69,1.13-2.12,1.84-2.12h15.09Z"/>
    </g>
  </g>
</svg>