<?xml version="1.0" encoding="utf-8" ?>
<svg xmlns="http://www.w3.org/2000/svg" xmlns:xlink="http://www.w3.org/1999/xlink" width="16" height="16" viewBox="0 0 16 16">
	<defs>
		<clipPath id="clipPath8214223744">
			<path d="M0 0L16 0L16 16L0 16L0 0Z" fill-rule="nonzero" transform="matrix(1 0 0 1 0 0)"/>
		</clipPath>
	</defs>
	<g clip-path="url(#clipPath8214223744)">
		<path d="M-0.6 0C-0.6 0.331368 -0.331368 0.6 0 0.6L12 0.6C12.3314 0.6 12.6 0.331368 12.6 0C12.6 -0.331368 12.3314 -0.6 12 -0.6L0 -0.6C-0.331368 -0.6 -0.6 -0.331368 -0.6 0ZM1.4 4C1.4 4.33137 1.66863 4.6 2 4.6L10 4.6C10.3314 4.6 10.6 4.33137 10.6 4C10.6 3.66863 10.3314 3.4 10 3.4L2 3.4C1.66863 3.4 1.4 3.66863 1.4 4ZM3.4 8C3.4 8.33137 3.66863 8.6 4 8.6L8 8.6C8.33137 8.6 8.6 8.33137 8.6 8C8.6 7.66863 8.33137 7.4 8 7.4L4 7.4C3.66863 7.4 3.4 7.66863 3.4 8Z" fill-rule="evenodd" transform="matrix(1 0 0 1 2 4)" fill="rgb(17, 24, 39)"/>
	</g>
</svg>
