<?xml version="1.0" encoding="utf-8" ?>
<svg xmlns="http://www.w3.org/2000/svg" xmlns:xlink="http://www.w3.org/1999/xlink" width="20" height="20" viewBox="0 0 20 20">
	<defs>
		<clipPath id="clipPath4246241646">
			<path d="M0 0L20 0L20 20L0 20L0 0Z" fill-rule="nonzero" transform="matrix(1 0 0 1 0 0)"/>
		</clipPath>
	</defs>
	<g clip-path="url(#clipPath4246241646)">
		<path d="M13.024 0.397205Q13.3736 0.0210419 13.5708 -0.223957Q13.8162 -0.53531 14.2119 -0.606995Q14.5398 -0.666393 14.864 -0.53778Q15.1818 -0.41168 15.3861 -0.147993Q15.625 0.160513 15.625 0.546929L15.625 5.39052C15.6789 5.39056 15.7337 5.39762 15.7883 5.41238Q16.0744 5.48982 16.3346 5.7039Q16.875 6.14854 16.875 6.87505Q16.875 7.60156 16.3346 8.0462Q16.0744 8.26028 15.7883 8.33773C15.7337 8.35249 15.6789 8.35955 15.625 8.35958L15.625 13.2188Q15.625 13.6182 15.3654 13.9278Q15.1548 14.1789 14.8326 14.2962Q14.5181 14.4107 14.2053 14.3592Q13.8037 14.293 13.5683 13.9884Q13.3712 13.7429 13.0231 13.3668Q12.3146 12.6015 11.5661 11.9651Q10.5325 11.0862 9.57696 10.5904Q8.43918 10.0001 7.5 10.0001L1.25 10.0001Q0.732233 10.0001 0.366116 9.63394Q0 9.26782 0 8.75005L0 8.4563Q-0.0850494 8.37912 -0.165569 8.2835Q-0.625 7.73792 -0.625 6.87505Q-0.625 6.01218 -0.165569 5.46661Q-0.085048 5.37099 -1.11022e-16 5.29381L0 5.00005Q0 4.48229 0.366116 4.11617Q0.732233 3.75005 1.25 3.75005L7.5 3.75005Q8.43975 3.75005 9.5779 3.16196Q10.5335 2.6682 11.5671 1.79299Q12.3156 1.15927 13.024 0.397205ZM1.875 5.00005L1.25 5.00005L1.25 5.61049C1.25023 5.62016 1.25022 5.6298 1.25 5.63942L1.25 8.11069C1.25022 8.12031 1.25023 8.12995 1.25 8.13961L1.25 8.75005L1.875 8.75005L1.875 5.00005ZM3.125 8.75005L3.125 5.00005L7.5 5.00005L7.5 8.75005L3.125 8.75005ZM8.75 8.92068Q10.4454 9.37142 12.3758 11.0128Q13.1812 11.6975 13.9404 12.5176Q14.1915 12.7889 14.375 13.0036L14.375 0.7633Q14.1912 0.977474 13.9395 1.24826Q13.1803 2.065 12.3749 2.74696Q10.4449 4.38116 8.75 4.83005L8.75 8.92068Z" fill-rule="evenodd" transform="matrix(1 0 0 1 1.875 1.87495)" fill="rgb(102, 102, 102)"/>
		<path d="M0.625 6.25L0.625 0C0.625 -0.345175 0.345175 -0.625 0 -0.625C-0.345175 -0.625 -0.625 -0.345175 -0.625 0L-0.625 6.5625Q-0.625 6.95082 -0.350419 7.22541Q-0.0758264 7.5 0.3125 7.5L2.38281 7.5Q3.01412 7.5002 3.38898 6.99198Q3.76383 6.48375 3.57714 5.88047Q3.48176 5.5745 3.2256 4.95209Q2.87066 4.08964 2.7317 3.5845Q2.58388 3.04717 2.53037 2.49968Q3.02855 2.48922 3.38388 2.13388Q3.75 1.76777 3.75 1.25L3.75 0.625Q3.75 0.107231 3.38388 -0.258884Q3.01777 -0.625 2.5 -0.625L1.875 -0.625C1.52982 -0.625 1.25 -0.345175 1.25 0C1.25 0.345175 1.52982 0.625 1.875 0.625L2.5 0.625L2.5 1.25L1.875 1.25Q1.81344 1.25 1.75307 1.26201Q1.69269 1.27402 1.63582 1.29758Q1.57895 1.32113 1.52777 1.35533Q1.47659 1.38953 1.43306 1.43306Q1.38953 1.47659 1.35533 1.52777Q1.32113 1.57895 1.29758 1.63582Q1.27402 1.69269 1.26201 1.75307Q1.25 1.81344 1.25 1.875Q1.25 2.91103 1.52647 3.91605Q1.68567 4.49478 2.06967 5.42781Q2.30483 5.99921 2.38301 6.25L0.625 6.25Z" fill-rule="evenodd" transform="matrix(1 0 0 1 5.625 11.25)" fill="rgb(102, 102, 102)"/>
	</g>
</svg>
