<?xml version="1.0" encoding="utf-8" ?>
<svg xmlns="http://www.w3.org/2000/svg" xmlns:xlink="http://www.w3.org/1999/xlink" width="18" height="18" viewBox="0 0 18 18">
	<defs>
		<clipPath id="clipPath4769381227">
			<path d="M0 0L18 0L18 18L0 18L0 0Z" fill-rule="nonzero" transform="matrix(1 0 0 1 0 -5.34058e-05)"/>
		</clipPath>
	</defs>
	<g clip-path="url(#clipPath4769381227)">
		<path d="M5.73806 6.35036C2.57425 6.35036 0 3.77631 0 0.612295C0 0.274041 0.274239 0 0.612294 0C0.950548 0 1.22459 0.274239 1.22459 0.612295C1.22479 3.10099 3.24937 5.12577 5.73806 5.12577C8.22656 5.12577 10.2513 3.10099 10.2513 0.61249C10.2513 0.274236 10.5254 0.000196338 10.8636 0.000196338C11.2019 0.000196338 11.4759 0.274435 11.4759 0.61249C11.4761 3.77631 8.90188 6.35036 5.73806 6.35036Z" fill-rule="nonzero" transform="matrix(1 0 0 1 3.25185 7.77022)" fill="rgb(232, 232, 232)"/>
		<path d="M3.69471 12.0005C1.66262 12.0005 0 10.3379 0 8.30579L0 3.69471C0 1.66262 1.66262 0 3.69471 0C5.7268 0 7.38942 1.66262 7.38942 3.69471L7.38942 8.30559C7.38942 10.3377 5.7268 12.0005 3.69471 12.0005Z" fill-rule="nonzero" transform="matrix(1 0 0 1 5.2952 0.0988482)" fill="rgb(232, 232, 232)"/>
		<path d="M0.612294 4.67411C0.27404 4.67411 0 4.40006 0 4.06181L0 0.612295C0 0.274041 0.274238 0 0.612294 0C0.950548 0 1.22459 0.274041 1.22459 0.612295L1.22459 4.06181C1.22459 4.40006 0.950548 4.67411 0.612294 4.67411Z" fill-rule="nonzero" transform="matrix(1 0 0 1 8.37762 13.0513)" fill="rgb(232, 232, 232)"/>
		<path d="M4.74207 1.22459L0.612294 1.22459C0.27404 1.22459 0 0.950547 0 0.612294C0 0.27404 0.274238 0 0.612294 0L4.74187 0C5.08013 0 5.35417 0.27404 5.35417 0.612294C5.35417 0.950547 5.08033 1.22459 4.74207 1.22459Z" fill-rule="nonzero" transform="matrix(1 0 0 1 6.31274 16.6563)" fill="rgb(232, 232, 232)"/>
	</g>
</svg>
