<?xml version="1.0" encoding="utf-8" ?>
<svg xmlns="http://www.w3.org/2000/svg" xmlns:xlink="http://www.w3.org/1999/xlink" width="22" height="21" viewBox="0 0 22 21">
	<defs>
		<clipPath id="clipPath6499479970">
			<path d="M0 0L22 0L22 21L0 21L0 0Z" fill-rule="nonzero" transform="matrix(1 0 0 1 0 0)"/>
		</clipPath>
	</defs>
	<g clip-path="url(#clipPath6499479970)">
		<path d="M7.63522 3.64456C7.63522 5.65436 5.92241 7.28935 3.81749 7.28935C1.71257 7.28935 0 5.65436 0 3.64456C0 1.63499 1.71257 0 3.81749 0C5.9224 0 7.63522 1.63499 7.63522 3.64456Z" fill-rule="nonzero" transform="matrix(1 0 0 1 12.8715 0.115356)" fill="rgb(136, 136, 136)"/>
		<path d="M3.27593 2.28295C1.74468 2.28295 0.4445 1.32265 0 0L6.55161 0C6.10711 1.32265 4.80693 2.28295 3.27593 2.28295Z" fill-rule="nonzero" transform="matrix(1 0 0 1 7.06597 18.5781)" fill="rgb(136, 136, 136)"/>
		<path d="M17.6651 17.4101L0.0777579 17.4101Q-0.155076 17.4101 -0.322862 17.2496Q-0.5 17.0801 -0.5 16.8358Q-0.5 16.3044 -0.268012 15.8239Q-0.0373662 15.3461 0.38091 15.0054Q0.898681 14.5835 1.18198 13.9969Q1.46375 13.4135 1.46375 12.7699L1.46375 6.59368Q1.46375 5.1485 2.05044 3.82672Q2.61563 2.55336 3.64399 1.57174Q4.6699 0.592457 5.99773 0.0554499Q7.37117 -0.5 8.87141 -0.5Q10.0463 -0.5 11.1769 -0.146428L11.9066 0.0817828L11.405 0.658803Q10.8641 1.28107 10.5736 2.03354Q10.2736 2.8105 10.2736 3.64479Q10.2736 4.59444 10.6591 5.46312Q11.0328 6.30505 11.7153 6.95658Q12.4003 7.61046 13.2884 7.96966Q14.2098 8.34228 15.2183 8.34228Q15.4745 8.34228 15.7299 8.31704L16.2791 8.26277L16.2791 12.7697Q16.2791 13.4132 16.5608 13.9966Q16.8441 14.5831 17.3619 15.0053Q17.78 15.3462 18.0107 15.8236Q18.2428 16.3042 18.2428 16.8356Q18.2428 17.08 18.0656 17.2495Q17.8978 17.4101 17.6651 17.4101ZM17.6651 16.4101Q17.4965 16.4101 17.3744 16.5269Q17.2428 16.6527 17.2428 16.8356Q17.2428 16.5331 17.1102 16.2586Q16.9761 15.981 16.7299 15.7804Q16.0401 15.2179 15.6603 14.4315Q15.2791 13.642 15.2791 12.7697L15.2791 8.81462L15.7791 8.81462L15.8282 9.31219Q15.5238 9.34228 15.2183 9.34228Q14.0152 9.34228 12.9135 8.89671Q11.8481 8.46582 11.0248 7.67992Q10.1991 6.89167 9.74512 5.86878Q9.2736 4.80638 9.2736 3.64479Q9.2736 2.62416 9.64067 1.67337Q9.99433 0.757349 10.6503 0.00275466L11.0276 0.330779L10.8784 0.807985Q9.89361 0.5 8.87141 0.5Q7.56572 0.5 6.37266 0.982505Q5.22208 1.44783 4.33447 2.29509Q3.44932 3.14001 2.96445 4.23241Q2.46375 5.36046 2.46375 6.59368L2.46375 12.7699Q2.46375 13.6423 2.08246 14.4318Q1.70257 15.2184 1.01245 15.7808Q0.766532 15.9811 0.632532 16.2586Q0.5 16.5331 0.5 16.8358Q0.5 16.6528 0.368381 16.5269Q0.246197 16.4101 0.0777579 16.4101L17.6651 16.4101Z" fill-rule="nonzero" transform="matrix(1 0 0 1 1.47049 0.115356)" fill="rgb(183, 183, 183)"/>
	</g>
</svg>
