<?xml version="1.0" encoding="utf-8" ?>
<svg xmlns="http://www.w3.org/2000/svg" xmlns:xlink="http://www.w3.org/1999/xlink" width="19.5938" height="19.5938" viewBox="0 0 19.5938 19.5938">
	<defs>
		<clipPath id="clipPath0809504274">
			<path d="M0 0L19.5938 0L19.5938 19.5938L0 19.5938L0 0Z" fill-rule="nonzero" transform="matrix(1 0 0 1 0 0)"/>
		</clipPath>
	</defs>
	<g clip-path="url(#clipPath0809504274)">
		<defs>
			<clipPath id="clipPath7107151501">
				<path d="M0 0L19.5938 0L19.5938 19.5938L0 19.5938L0 0Z" fill-rule="nonzero" transform="matrix(1 0 0 1 0 0)"/>
			</clipPath>
		</defs>
		<g clip-path="url(#clipPath7107151501)">
			<ellipse cx="1.8369187" cy="1.7996063" rx="1.8369187" ry="1.7996063" stroke-width="1.2246125" transform="matrix(1 0 0 1 3.06152 7.99727)" stroke="rgb(102, 102, 102)" fill="transparent"/>
			<ellipse cx="1.8369187" cy="1.7996063" rx="1.8369187" ry="1.7996063" stroke-width="1.2246125" transform="matrix(1 0 0 1 12.8585 2.59845)" stroke="rgb(102, 102, 102)" fill="transparent"/>
			<ellipse cx="1.8369187" cy="1.7996063" rx="1.8369187" ry="1.7996063" stroke-width="1.2246125" transform="matrix(1 0 0 1 12.8585 13.3961)" stroke="rgb(102, 102, 102)" fill="transparent"/>
			<path d="M7.13157 -0.295521C6.96836 -0.591693 6.59595 -0.699481 6.29978 -0.536271L-0.295521 3.09818C-0.591693 3.26139 -0.699481 3.6338 -0.536271 3.92998C-0.37306 4.22615 -0.000650525 4.33394 0.295521 4.17073L6.89082 0.536271C7.187 0.37306 7.29478 0.000650585 7.13157 -0.295521ZM-0.53627 5.1033C-0.69948 5.39947 -0.591692 5.77188 -0.295521 5.93509L6.29978 9.56954C6.59595 9.73275 6.96836 9.62497 7.13157 9.32879C7.29478 9.03262 7.187 8.66021 6.89082 8.497L0.295522 4.86255C-0.000649822 4.69934 -0.37306 4.80713 -0.53627 5.1033Z" fill-rule="evenodd" transform="matrix(1 0 0 1 6.49927 5.28023)" fill="rgb(102, 102, 102)"/>
		</g>
	</g>
</svg>
