<?xml version="1.0" encoding="utf-8" ?>
<svg xmlns="http://www.w3.org/2000/svg" xmlns:xlink="http://www.w3.org/1999/xlink" width="20" height="20" viewBox="0 0 20 20">
	<defs>
		<clipPath id="clipPath4007935854">
			<path d="M0 0L20 0L20 20L0 20L0 0Z" fill-rule="nonzero" transform="matrix(1 0 0 1 0 0)"/>
		</clipPath>
	</defs>
	<g clip-path="url(#clipPath4007935854)">
		<defs>
			<clipPath id="clipPath1227593552">
				<path d="M0 0L20 0L20 20L0 20L0 0Z" fill-rule="nonzero" transform="matrix(1 0 0 1 0 0)"/>
			</clipPath>
		</defs>
		<g clip-path="url(#clipPath1227593552)">
			<path d="M15.8333 10Q15.8333 11.0355 15.1011 11.7678Q14.3689 12.5 13.3333 12.5L3.33333 12.5L3.33333 11.6667L3.92259 12.2559L0.589256 15.5893Q0.531219 15.6473 0.462975 15.6929Q0.394731 15.7385 0.318903 15.7699Q0.243074 15.8013 0.162575 15.8173Q0.0820763 15.8333 1.3411e-07 15.8333Q-0.082076 15.8333 -0.162575 15.8173Q-0.243074 15.8013 -0.318903 15.7699Q-0.394731 15.7385 -0.462975 15.6929Q-0.531219 15.6473 -0.589256 15.5893Q-0.706466 15.472 -0.7699 15.3189Q-0.833333 15.1658 -0.833333 15L-0.833333 1.66667Q-0.833333 0.631132 -0.1011 -0.1011Q0.631133 -0.833333 1.66667 -0.833333L13.3333 -0.833333Q14.3689 -0.833333 15.1011 -0.101101Q15.8333 0.631131 15.8333 1.66667L15.8333 10ZM14.1667 10L14.1667 1.66667Q14.1667 1.32149 13.9226 1.07741Q13.6785 0.833333 13.3333 0.833333L1.66667 0.833333Q1.32149 0.833333 1.07741 1.07741Q0.833333 1.32149 0.833333 1.66667L0.833333 15L0 15L-0.589256 14.4107L2.74408 11.0774Q2.86129 10.9602 3.01443 10.8968Q3.16757 10.8333 3.33333 10.8333L13.3333 10.8333Q13.6785 10.8333 13.9226 10.5893Q14.1667 10.3452 14.1667 10Z" fill-rule="nonzero" transform="matrix(1 0 0 1 2.5 2.5)" fill="rgb(142, 173, 192)"/>
		</g>
	</g>
</svg>
