<svg xmlns="http://www.w3.org/2000/svg" xmlns:xlink="http://www.w3.org/1999/xlink" version="1.1" width="256" height="256" viewBox="0 0 256 256" xml:space="preserve">
<g style="stroke: none; stroke-width: 0; stroke-dasharray: none; stroke-linecap: butt; stroke-linejoin: miter; stroke-miterlimit: 10; fill: none; fill-rule: nonzero; opacity: 1;" transform="translate(1.4065934065934016 1.4065934065934016) scale(2.81 2.81)">
	<path d="M 87 90 H 3 c -1.657 0 -3 -1.343 -3 -3 V 3 c 0 -1.657 1.343 -3 3 -3 h 64.265 c 0.796 0 1.559 0.316 2.121 0.879 l 19.735 19.735 C 89.684 21.177 90 21.94 90 22.735 V 87 C 90 88.657 88.657 90 87 90 z M 6 84 h 78 V 23.978 L 66.022 6 H 6 V 84 z" style="stroke: none; stroke-width: 1; stroke-dasharray: none; stroke-linecap: butt; stroke-linejoin: miter; stroke-miterlimit: 10; fill: rgb(0,0,0); fill-rule: nonzero; opacity: 1;" transform=" matrix(1 0 0 1 0 0) " stroke-linecap="round"/>
	<path d="M 71.217 90 H 18.783 c -1.657 0 -3 -1.343 -3 -3 V 48.079 c 0 -1.657 1.343 -3 3 -3 h 52.434 c 1.657 0 3 1.343 3 3 V 87 C 74.217 88.657 72.874 90 71.217 90 z M 21.783 84 h 46.434 V 51.079 H 21.783 V 84 z" style="stroke: none; stroke-width: 1; stroke-dasharray: none; stroke-linecap: butt; stroke-linejoin: miter; stroke-miterlimit: 10; fill: rgb(0,0,0); fill-rule: nonzero; opacity: 1;" transform=" matrix(1 0 0 1 0 0) " stroke-linecap="round"/>
	<path d="M 54.208 23.239 H 18.783 c -1.657 0 -3 -1.343 -3 -3 V 3 c 0 -1.657 1.343 -3 3 -3 h 35.425 c 1.657 0 3 1.343 3 3 v 17.239 C 57.208 21.896 55.865 23.239 54.208 23.239 z M 21.783 17.239 h 29.425 V 6 H 21.783 V 17.239 z" style="stroke: none; stroke-width: 1; stroke-dasharray: none; stroke-linecap: butt; stroke-linejoin: miter; stroke-miterlimit: 10; fill: rgb(0,0,0); fill-rule: nonzero; opacity: 1;" transform=" matrix(1 0 0 1 0 0) " stroke-linecap="round"/>
	<path d="M 87 90 H 3 c -1.657 0 -3 -1.343 -3 -3 V 3 c 0 -1.657 1.343 -3 3 -3 h 64.265 c 0.796 0 1.559 0.316 2.121 0.879 l 19.735 19.735 C 89.684 21.177 90 21.94 90 22.735 V 87 C 90 88.657 88.657 90 87 90 z M 6 84 h 78 V 23.978 L 66.022 6 H 6 V 84 z" style="stroke: none; stroke-width: 1; stroke-dasharray: none; stroke-linecap: butt; stroke-linejoin: miter; stroke-miterlimit: 10; fill: rgb(0,0,0); fill-rule: nonzero; opacity: 1;" transform=" matrix(1 0 0 1 0 0) " stroke-linecap="round"/>
	<path d="M 62.295 60.994 h -34.59 c -1.657 0 -3 -1.343 -3 -3 s 1.343 -3 3 -3 h 34.59 c 1.657 0 3 1.343 3 3 S 63.952 60.994 62.295 60.994 z" style="stroke: none; stroke-width: 1; stroke-dasharray: none; stroke-linecap: butt; stroke-linejoin: miter; stroke-miterlimit: 10; fill: rgb(0,0,0); fill-rule: nonzero; opacity: 1;" transform=" matrix(1 0 0 1 0 0) " stroke-linecap="round"/>
	<path d="M 62.295 70.539 h -34.59 c -1.657 0 -3 -1.343 -3 -3 s 1.343 -3 3 -3 h 34.59 c 1.657 0 3 1.343 3 3 S 63.952 70.539 62.295 70.539 z" style="stroke: none; stroke-width: 1; stroke-dasharray: none; stroke-linecap: butt; stroke-linejoin: miter; stroke-miterlimit: 10; fill: rgb(0,0,0); fill-rule: nonzero; opacity: 1;" transform=" matrix(1 0 0 1 0 0) " stroke-linecap="round"/>
	<path d="M 62.295 80.085 h -34.59 c -1.657 0 -3 -1.343 -3 -3 s 1.343 -3 3 -3 h 34.59 c 1.657 0 3 1.343 3 3 S 63.952 80.085 62.295 80.085 z" style="stroke: none; stroke-width: 1; stroke-dasharray: none; stroke-linecap: butt; stroke-linejoin: miter; stroke-miterlimit: 10; fill: rgb(0,0,0); fill-rule: nonzero; opacity: 1;" transform=" matrix(1 0 0 1 0 0) " stroke-linecap="round"/>
</g>
</svg>