<?xml version="1.0" encoding="utf-8" ?>
<svg xmlns="http://www.w3.org/2000/svg" xmlns:xlink="http://www.w3.org/1999/xlink" width="20" height="20" viewBox="0 0 20 20">
	<defs>
		<clipPath id="clipPath5469496504">
			<path d="M0 0L20 0L20 20L0 20L0 0Z" fill-rule="nonzero" transform="matrix(1 0 0 1 0 0)"/>
		</clipPath>
	</defs>
	<g clip-path="url(#clipPath5469496504)">
		<defs>
			<clipPath id="clipPath6274391462">
				<path d="M0 0L20 0L20 20L0 20L0 0Z" fill-rule="nonzero" transform="matrix(1 0 0 1 0 0)"/>
			</clipPath>
		</defs>
		<g clip-path="url(#clipPath6274391462)">
			<circle cx="1.875" cy="1.875" r="1.875" stroke-width="1.25" transform="matrix(1 0 0 1 3.125 8.125)" stroke="rgb(75, 85, 99)" fill="transparent"/>
			<circle cx="1.875" cy="1.875" r="1.875" stroke-width="1.25" transform="matrix(1 0 0 1 13.125 2.5)" stroke="rgb(75, 85, 99)" fill="transparent"/>
			<circle cx="1.875" cy="1.875" r="1.875" stroke-width="1.25" transform="matrix(1 0 0 1 13.125 13.75)" stroke="rgb(75, 85, 99)" fill="transparent"/>
			<path d="M6.42562 -0.544736C6.72647 -0.713961 7.10754 -0.607257 7.27677 -0.30641C7.44599 -0.00556311 7.33929 0.375512 7.03844 0.544736L0.30641 4.33145C0.0055632 4.50068 -0.375512 4.39398 -0.544736 4.09313C-0.713961 3.79228 -0.607257 3.41121 -0.30641 3.24198L6.42562 -0.544736ZM-0.544736 5.31859C-0.71396 5.61944 -0.607257 6.00051 -0.30641 6.16974L6.42562 9.95646C6.72647 10.1257 7.10754 10.019 7.27677 9.71813C7.44599 9.41728 7.33929 9.03621 7.03844 8.86698L0.306411 5.08026C0.00556388 4.91104 -0.375512 5.01774 -0.544736 5.31859Z" fill-rule="evenodd" transform="matrix(1 0 0 1 6.63398 5.29414)" fill="rgb(75, 85, 99)"/>
		</g>
	</g>
</svg>
