<?xml version="1.0" encoding="UTF-8"?>
<!-- Uploaded to: SVG Find, www.svgrepo.com, Generator: SVG Find Mixer Tools -->
<svg fill="#000000" width="800px" height="800px" version="1.1" viewBox="144 144 512 512" xmlns="http://www.w3.org/2000/svg">
 <path d="m487.04 381.27 73.461-29.383c9.5625-3.8281 15.836-13.086 15.836-23.391v-79.637c-13.91 0-25.191 11.281-25.191 25.191v54.449l-61.062 24.426 28.496-28.496c4.7227-4.7227 7.375-11.129 7.375-17.809v-108.14c-13.91 0-25.188 11.277-25.188 25.188v82.949l-50.383 50.379v-57.754c0-13.91-11.281-25.191-25.191-25.191v31.984c-7.4141-4.2969-16-6.793-25.188-6.793-9.1914 0-17.777 2.4961-25.191 6.793v-31.984c-13.91 0-25.191 11.281-25.191 25.191v57.754l-50.379-50.379v-82.949c0-13.91-11.281-25.188-25.191-25.188v108.14c0 6.6797 2.6562 13.09 7.375 17.816l28.492 28.488-61.059-24.426v-54.449c0-13.91-11.281-25.191-25.191-25.191v79.637c0 10.305 6.2734 19.562 15.836 23.387l73.727 29.492-94.035 16.969c-11.992 2.168-20.715 12.605-20.715 24.793v102.82c13.91 0 25.188-11.277 25.188-25.188v-77.66l94.926-17.258-59.359 43.172c-6.5195 4.7383-10.375 12.312-10.375 20.371v132.14c13.91 0 25.191-11.281 25.191-25.191v-106.95l50.379-36.641v5.0391c0 66.453 27.188 90.16 75.574 138.55 48.383-48.387 75.57-72.094 75.57-138.55v-5.0391l50.379 36.641v106.95c0 13.91 11.281 25.191 25.191 25.191v-132.14c0-8.0586-3.8516-15.633-10.371-20.371l-59.359-43.172 94.922 17.258v77.66c0 13.91 11.281 25.188 25.191 25.188v-102.85c0-12.172-8.707-22.605-20.688-24.781z"/>
</svg>