<?xml version="1.0" encoding="utf-8" ?>
<svg xmlns="http://www.w3.org/2000/svg" xmlns:xlink="http://www.w3.org/1999/xlink" width="18" height="18" viewBox="0 0 18 18">
	<defs>
		<clipPath id="clipPath0539214226">
			<path d="M0 0L18 0L18 18L0 18L0 0Z" fill-rule="nonzero" transform="matrix(1 0 0 1 0 0)"/>
		</clipPath>
	</defs>
	<g clip-path="url(#clipPath0539214226)">
		<path d="M5.57639 0.285775Q5.7367 -0.206402 6.15357 -0.490347Q6.53476 -0.75 7.00304 -0.75Q7.47146 -0.75 7.85259 -0.490202Q8.26947 -0.206034 8.42936 0.286475L9.56854 3.79175Q9.56831 3.79106 9.56831 3.79106Q9.56831 3.79106 9.56831 3.79106L13.254 3.79106Q13.772 3.79106 14.1711 4.09993Q14.536 4.38229 14.6806 4.82795Q14.8252 5.27332 14.6961 5.71609Q14.5548 6.20032 14.1364 6.50491L11.1538 8.67138L11.154 8.6712Q11.154 8.6712 11.154 8.6712L12.2926 12.1769Q12.4527 12.6692 12.2826 13.1443Q12.127 13.5788 11.748 13.8542Q11.3689 14.1296 10.9076 14.1433Q10.4031 14.1583 9.98435 13.8534L7.00299 11.6879Q7.00276 11.6877 7.00276 11.6877Q7.00275 11.6877 7.00276 11.6877L4.02052 13.8539Q3.60226 14.1584 3.09761 14.1432Q2.63644 14.1293 2.25741 13.8538Q1.87847 13.5783 1.72291 13.144Q1.55271 12.6688 1.71314 12.1763L2.85143 8.67139Q2.8515 8.6712 2.8515 8.6712Q2.8515 8.6712 2.8515 8.6712L-0.130259 6.50538Q-0.549533 6.20055 -0.690778 5.71598Q-0.81988 5.27308 -0.674967 4.82753Q-0.530104 4.38213 -0.165338 4.09989Q0.233784 3.79106 0.751507 3.79106L4.43701 3.79106L4.4372 3.79106Q4.4372 3.79106 4.43721 3.79106L5.57623 0.286255L5.57639 0.285775ZM7.00279 0.74987L5.86331 4.25606Q5.71232 4.71913 5.3181 5.00516Q4.92387 5.29119 4.43701 5.29106L0.751507 5.29106L0.751481 5.29147Q0.751369 5.29182 0.751273 5.29175L3.73352 7.45792Q4.12769 7.74448 4.27818 8.20798Q4.42867 8.67148 4.27808 9.13473L3.13938 12.6409Q3.13947 12.6406 3.13942 12.6405Q3.13902 12.6402 3.13899 12.6402L6.12076 10.4744Q6.51516 10.1877 7.00275 10.1877Q7.49035 10.1877 7.88452 10.4742L10.8672 12.6407Q10.8667 12.6404 10.8663 12.6407L10.8659 12.6402L9.7275 9.13492Q9.57684 8.67148 9.72734 8.20797Q9.87783 7.74447 10.2722 7.45775L13.2536 5.29221Q13.2541 5.29182 13.2539 5.29105Q13.2539 5.29106 13.254 5.29106L9.56721 5.29106Q9.08056 5.2907 8.68681 5.00472Q8.29307 4.71874 8.14198 4.25537L7.00266 0.74965L7.00263 0.75035L7.00279 0.74987Z" fill-rule="nonzero" transform="matrix(1 0 0 1 1.99724 1.67719)" fill="rgb(107, 114, 128)"/>
	</g>
</svg>
